<?xml version="1.0" encoding="UTF-8" ?>
<!DOCTYPE svg PUBLIC "-//W3C//DTD SVG 1.1//EN" "http://www.w3.org/Graphics/SVG/1.1/DTD/svg11.dtd">
<svg width="134pt" height="136pt" viewBox="0 0 134 136" version="1.1" xmlns="http://www.w3.org/2000/svg">
<g id="#596271bf">
<path fill="#596271" opacity="0.75" d=" M 83.58 0.00 L 85.91 0.00 C 85.80 2.01 83.74 1.81 82.30 2.27 C 78.64 5.80 78.18 11.77 81.34 15.78 C 81.74 18.83 80.87 21.70 79.09 24.16 C 78.75 21.12 82.35 18.20 80.08 15.21 C 76.39 11.84 77.92 6.17 80.87 2.83 C 81.44 1.44 84.92 2.04 83.58 0.00 Z" />
</g>
<g id="#d0dae9fe">
<path fill="#d0dae9" opacity="1.00" d=" M 85.91 0.00 L 90.88 0.00 C 90.75 1.66 91.54 2.27 93.27 1.84 C 93.71 2.13 94.59 2.70 95.03 2.99 C 95.97 5.27 97.18 7.49 97.47 9.98 C 96.47 12.37 96.01 15.37 93.63 16.82 C 90.87 18.90 87.25 19.00 83.95 19.33 C 82.73 18.45 82.15 16.99 81.34 15.78 C 78.18 11.77 78.64 5.80 82.30 2.27 C 83.74 1.81 85.80 2.01 85.91 0.00 M 81.34 11.64 L 82.20 11.85 C 82.50 12.37 83.11 13.41 83.42 13.93 C 84.63 17.63 91.68 17.76 92.96 13.97 C 93.17 13.72 93.61 13.20 93.82 12.95 C 96.42 11.34 95.43 5.33 91.88 5.00 C 91.62 4.76 91.11 4.30 90.85 4.07 C 90.07 2.48 86.79 3.17 85.08 3.32 C 82.52 5.00 80.25 8.53 81.34 11.64 Z" />
</g>
<g id="#5d6776c7">
<path fill="#5d6776" opacity="0.78" d=" M 90.88 0.00 L 92.47 0.00 C 92.67 0.46 93.07 1.38 93.27 1.84 C 91.54 2.27 90.75 1.66 90.88 0.00 Z" />
</g>
<g id="#6a7481c7">
<path fill="#6a7481" opacity="0.78" d=" M 81.34 11.64 C 80.25 8.53 82.52 5.00 85.08 3.32 C 86.79 3.17 90.07 2.48 90.85 4.07 C 88.96 3.77 87.10 3.60 85.22 4.06 C 82.52 5.74 81.60 8.84 82.20 11.85 L 81.34 11.64 Z" />
</g>
<g id="#657991ff">
<path fill="#657991" opacity="1.00" d=" M 95.03 2.99 C 97.04 4.50 98.00 7.14 98.19 9.59 C 98.42 12.23 96.34 14.29 95.58 16.70 C 92.68 17.29 90.86 20.89 87.69 19.45 C 84.67 21.48 86.13 25.35 83.70 27.61 C 83.06 29.23 83.86 31.26 82.68 32.68 C 81.79 33.65 81.40 34.81 81.52 36.15 C 82.61 37.60 85.00 36.47 86.29 37.71 C 88.57 39.39 91.05 40.81 93.07 42.83 C 94.57 44.35 97.15 44.84 97.84 47.04 C 99.55 50.20 103.19 52.32 103.69 56.09 C 105.32 58.80 106.95 61.53 107.22 64.74 C 106.25 68.35 109.27 72.34 113.10 70.01 C 113.06 71.33 113.05 72.64 113.06 73.96 C 111.71 73.69 110.07 72.84 108.82 73.78 C 106.96 76.32 107.49 79.68 106.72 82.59 C 106.43 85.82 104.48 88.75 104.77 92.04 C 104.57 92.28 104.16 92.75 103.96 92.98 C 103.66 93.32 103.06 94.00 102.76 94.34 L 103.20 95.25 C 101.71 97.00 99.69 98.50 99.03 100.79 C 96.72 103.64 94.05 106.37 90.73 107.86 C 90.41 110.31 91.17 112.68 91.75 114.98 C 95.40 114.88 99.75 115.81 101.73 119.17 C 105.36 122.26 105.14 129.11 101.15 131.60 C 101.14 129.51 103.38 128.16 103.15 125.97 C 103.74 119.12 95.63 113.98 89.55 116.46 C 87.35 119.15 85.65 122.44 85.41 125.96 C 85.32 129.46 87.99 132.54 91.10 133.81 C 94.11 134.12 97.24 134.14 99.88 132.47 C 100.23 135.41 96.33 133.45 95.28 135.54 C 88.76 135.54 81.93 128.41 85.01 121.82 C 85.28 120.28 86.70 119.39 87.22 117.98 C 86.36 115.80 84.90 113.85 82.92 112.56 C 81.06 112.24 79.78 114.11 78.11 114.61 C 77.33 114.47 75.79 114.21 75.01 114.07 C 74.36 114.66 73.71 115.25 73.05 115.82 C 69.49 115.63 65.88 116.04 62.37 115.63 C 62.12 115.33 61.64 114.73 61.39 114.43 C 58.84 114.26 55.80 115.15 53.72 113.25 C 51.63 111.65 48.98 111.77 46.92 110.21 C 46.65 109.85 46.12 109.14 45.86 108.78 L 44.87 109.12 C 43.32 107.51 41.23 107.95 39.41 108.79 C 42.08 113.11 41.68 120.65 36.72 123.00 C 39.98 119.42 41.83 113.63 38.71 109.39 C 37.46 106.56 33.81 106.21 31.08 106.37 C 27.74 106.45 25.50 109.10 23.10 111.04 C 21.58 113.12 22.26 115.84 22.13 118.23 C 21.24 115.95 21.71 113.44 22.04 111.09 C 23.22 109.02 25.76 108.30 27.06 106.30 C 29.75 104.98 32.92 105.82 35.75 105.68 C 37.12 103.96 35.70 101.62 35.27 99.74 C 32.54 97.29 30.36 94.32 29.16 90.94 C 29.33 88.26 27.08 86.63 27.22 83.93 C 25.39 81.52 26.50 78.40 26.18 75.64 C 23.85 75.78 20.08 74.29 19.27 77.49 C 18.09 81.08 14.25 82.88 10.73 83.19 C 2.91 83.60 -3.20 72.55 3.02 66.99 C 1.41 71.09 0.87 76.50 4.41 79.77 C 6.48 82.26 10.00 82.13 12.92 81.86 C 16.85 81.10 18.44 77.03 20.24 73.96 C 21.77 71.84 19.53 70.02 18.62 68.26 C 21.10 68.04 23.68 68.69 26.08 68.12 C 26.11 64.84 29.10 62.36 28.84 59.03 C 30.86 55.91 31.84 52.15 34.67 49.57 C 37.35 46.27 40.62 43.54 43.63 40.56 C 44.79 40.15 46.01 39.82 46.78 38.77 C 49.87 36.58 53.95 36.43 56.88 34.06 C 62.53 33.94 68.21 34.15 73.84 33.92 C 77.18 31.61 77.70 27.62 79.09 24.16 C 80.87 21.70 81.74 18.83 81.34 15.78 C 82.15 16.99 82.73 18.45 83.95 19.33 C 87.25 19.00 90.87 18.90 93.63 16.82 C 96.01 15.37 96.47 12.37 97.47 9.98 C 97.18 7.49 95.97 5.27 95.03 2.99 M 57.43 40.47 C 45.09 43.43 35.97 54.27 32.39 66.08 C 32.18 67.25 32.17 68.43 32.35 69.60 C 38.13 69.68 43.96 69.99 49.70 69.51 C 52.48 66.13 54.29 61.58 58.39 59.41 C 61.09 57.70 64.48 57.81 67.23 56.25 C 69.26 53.29 69.69 49.55 71.24 46.33 C 71.81 44.22 73.41 42.20 73.13 39.99 C 68.17 37.45 62.52 39.36 57.43 40.47 M 76.59 50.60 C 74.76 52.24 75.10 55.02 74.33 57.19 C 76.27 58.68 78.43 60.16 80.64 61.36 C 81.67 63.99 84.14 65.60 84.85 68.39 C 89.99 68.34 95.17 68.12 100.29 68.47 C 102.28 66.67 100.41 64.30 99.76 62.33 C 98.23 60.80 98.86 58.21 96.86 57.05 C 95.55 53.41 92.23 50.96 89.77 48.04 C 87.34 47.36 86.19 44.92 83.98 43.91 C 82.72 43.90 81.76 43.33 81.13 42.21 C 77.89 43.10 77.17 47.64 76.59 50.60 M 61.38 63.41 C 58.09 66.10 54.49 69.42 54.68 74.07 C 54.20 82.25 62.93 89.47 70.80 86.84 C 73.36 85.67 76.96 83.98 76.84 80.67 L 77.24 80.27 C 78.91 80.12 79.21 78.00 79.52 76.68 C 79.70 74.17 79.91 70.88 77.91 69.06 C 77.66 68.83 77.18 68.38 76.93 68.15 C 77.56 65.93 74.90 64.68 73.37 63.67 C 69.84 61.28 64.91 60.73 61.38 63.41 M 84.71 74.80 C 84.07 78.84 83.33 83.22 80.33 86.26 C 79.33 87.45 77.78 88.26 77.24 89.79 C 78.44 92.46 80.33 94.75 81.70 97.34 C 82.52 98.36 82.89 100.45 84.71 99.93 C 84.76 100.32 84.85 101.09 84.89 101.48 L 85.43 101.75 C 84.98 102.81 85.17 104.82 86.74 104.63 C 89.32 103.42 91.02 100.97 93.07 99.07 C 98.98 92.42 103.98 83.62 102.60 74.43 C 96.67 74.78 90.47 73.83 84.71 74.80 M 32.50 75.60 C 32.63 81.39 34.44 87.04 36.79 92.27 C 38.66 93.76 39.55 95.98 40.94 97.85 C 43.24 95.75 44.87 93.08 46.68 90.58 C 48.15 88.01 51.47 86.25 51.37 82.96 C 49.27 81.11 50.69 77.91 48.89 75.76 C 43.45 75.41 37.96 75.71 32.50 75.60 M 56.21 88.39 L 55.63 88.48 C 52.40 92.67 49.22 96.93 46.14 101.24 C 44.64 103.11 47.33 104.65 48.74 105.39 C 57.60 110.99 68.82 111.58 78.74 108.77 C 79.87 108.53 81.33 107.68 80.77 106.29 C 79.08 101.90 76.03 98.23 74.01 94.01 C 73.38 93.10 73.14 91.42 71.72 91.47 C 68.49 91.40 65.10 92.36 62.00 91.02 C 59.91 90.52 58.33 88.61 56.21 88.39 Z" />
<path fill="#657991" opacity="1.00" d=" M 7.90 66.89 C 9.92 66.77 12.21 65.72 14.09 66.86 C 16.68 69.06 19.22 72.97 17.09 76.29 C 15.40 80.65 9.72 81.06 6.14 78.91 C 3.82 76.63 2.51 72.37 4.82 69.66 C 3.53 73.14 5.02 78.13 8.99 79.03 C 11.46 79.18 14.59 79.24 15.87 76.66 C 17.81 73.31 16.16 69.34 13.08 67.38 C 11.38 67.51 9.66 67.40 7.97 67.62 C 7.12 68.31 6.25 68.96 5.34 69.57 C 4.03 67.63 6.98 67.68 7.90 66.89 Z" />
<path fill="#657991" opacity="1.00" d=" M 24.27 113.97 C 24.66 112.95 24.40 110.33 26.32 111.11 C 24.71 113.75 24.53 117.75 27.35 119.65 C 29.81 121.83 33.19 121.56 35.82 119.81 C 37.98 117.26 38.15 113.53 35.77 111.04 C 37.78 110.88 38.00 113.50 38.02 114.93 C 38.93 119.49 33.99 122.84 29.86 122.26 C 26.43 121.07 24.01 117.62 24.27 113.97 Z" />
</g>
<g id="#6c7786d7">
<path fill="#6c7786" opacity="0.84" d=" M 91.88 5.00 C 95.43 5.33 96.42 11.34 93.82 12.95 C 94.29 11.10 94.29 9.15 93.97 7.28 C 93.25 6.54 92.55 5.78 91.88 5.00 Z" />
</g>
<g id="#69717dbc">
<path fill="#69717d" opacity="0.74" d=" M 83.42 13.93 C 85.37 15.42 87.82 16.24 90.28 15.87 C 91.18 15.25 92.07 14.62 92.96 13.97 C 91.68 17.76 84.63 17.63 83.42 13.93 Z" />
</g>
<g id="#2d3850f3">
<path fill="#2d3850" opacity="0.95" d=" M 57.43 40.47 C 62.52 39.36 68.17 37.45 73.13 39.99 C 73.41 42.20 71.81 44.22 71.24 46.33 C 69.69 49.55 69.26 53.29 67.23 56.25 C 64.48 57.81 61.09 57.70 58.39 59.41 C 54.29 61.58 52.48 66.13 49.70 69.51 C 43.96 69.99 38.13 69.68 32.35 69.60 C 32.17 68.43 32.18 67.25 32.39 66.08 C 35.97 54.27 45.09 43.43 57.43 40.47 M 58.30 41.14 C 57.76 42.96 55.67 41.70 54.60 42.67 C 53.49 43.34 52.47 44.36 51.04 44.07 C 49.33 45.57 47.65 47.82 45.21 48.15 C 43.64 50.52 40.43 51.87 39.91 54.82 C 37.38 57.15 36.23 60.58 34.64 63.59 C 33.71 65.02 33.80 67.88 36.00 67.95 C 40.26 67.79 44.53 68.30 48.77 67.92 C 52.33 62.39 57.31 56.90 64.04 55.80 C 66.57 55.85 67.01 52.72 68.08 51.04 C 67.37 48.88 69.84 47.96 70.06 46.03 C 70.25 44.41 72.47 42.77 71.08 41.18 C 66.83 40.85 62.51 41.20 58.30 41.14 Z" />
</g>
<g id="#3b4962ff">
<path fill="#3b4962" opacity="1.00" d=" M 61.38 63.41 C 64.91 60.73 69.84 61.28 73.37 63.67 C 74.90 64.68 77.56 65.93 76.93 68.15 C 73.76 64.18 67.97 62.25 63.07 63.86 C 61.59 64.46 60.86 66.16 59.17 66.41 C 57.87 67.70 57.41 69.62 56.19 71.00 C 56.32 73.91 55.40 77.06 57.23 79.63 C 59.23 85.92 67.35 86.57 72.72 84.71 C 74.32 83.60 75.47 82.01 76.84 80.67 C 76.96 83.98 73.36 85.67 70.80 86.84 C 62.93 89.47 54.20 82.25 54.68 74.07 C 54.49 69.42 58.09 66.10 61.38 63.41 Z" />
<path fill="#3b4962" opacity="1.00" d=" M 115.03 68.09 C 116.66 66.05 118.69 64.30 121.17 63.31 C 123.96 63.42 127.39 62.87 129.39 65.33 C 126.31 64.60 122.88 63.12 119.79 64.67 C 117.72 66.22 116.01 68.18 114.23 70.05 C 113.99 71.34 113.78 72.63 113.62 73.93 C 115.83 76.91 117.43 80.76 120.97 82.40 C 122.89 82.20 124.87 82.42 126.71 81.71 L 126.79 82.69 C 124.09 83.84 120.87 83.12 118.45 81.57 C 115.91 80.32 115.41 76.96 112.99 75.58 C 111.42 75.55 109.86 75.57 108.30 75.63 C 109.22 79.30 107.19 82.66 107.04 86.20 C 105.93 87.78 105.11 89.39 105.40 91.37 L 104.77 92.04 C 104.48 88.75 106.43 85.82 106.72 82.59 C 107.49 79.68 106.96 76.32 108.82 73.78 C 110.07 72.84 111.71 73.69 113.06 73.96 C 113.05 72.64 113.06 71.33 113.10 70.01 C 109.27 72.34 106.25 68.35 107.22 64.74 C 107.96 65.66 108.25 66.76 108.08 68.03 C 110.35 68.46 112.72 68.03 115.03 68.09 Z" />
<path fill="#3b4962" opacity="1.00" d=" M 56.21 88.39 C 58.33 88.61 59.91 90.52 62.00 91.02 C 65.10 92.36 68.49 91.40 71.72 91.47 C 73.14 91.42 73.38 93.10 74.01 94.01 C 76.03 98.23 79.08 101.90 80.77 106.29 C 81.33 107.68 79.87 108.53 78.74 108.77 C 68.82 111.58 57.60 110.99 48.74 105.39 C 47.33 104.65 44.64 103.11 46.14 101.24 C 49.22 96.93 52.40 92.67 55.63 88.48 L 56.21 88.39 M 51.31 96.35 C 50.29 98.50 48.00 99.71 47.25 102.00 C 49.89 105.65 54.53 105.84 58.16 107.96 C 64.54 108.89 71.23 109.04 77.59 107.60 C 78.27 105.21 78.37 102.41 76.30 100.65 C 73.96 98.95 74.21 95.57 72.00 93.78 C 69.75 92.29 67.34 94.80 65.08 93.65 C 62.89 92.29 60.14 92.46 57.98 91.02 C 54.30 89.74 53.38 94.44 51.31 96.35 Z" />
<path fill="#3b4962" opacity="1.00" d=" M 90.83 120.04 C 91.89 117.65 96.30 117.76 97.65 119.61 C 95.32 119.68 93.05 118.60 90.83 120.04 Z" />
<path fill="#3b4962" opacity="1.00" d=" M 22.14 119.18 C 24.82 120.27 26.07 123.49 29.07 124.03 C 31.56 125.41 33.93 122.88 36.44 123.30 C 34.27 124.89 31.53 126.72 29.03 124.61 C 25.82 124.76 24.43 121.41 22.14 119.79 L 22.14 119.18 Z" />
<path fill="#3b4962" opacity="1.00" d=" M 87.26 126.05 C 87.65 124.16 88.18 121.88 89.94 120.78 C 89.04 122.99 86.75 125.76 89.02 127.93 C 90.57 131.33 95.14 132.16 98.03 129.89 C 97.67 131.69 95.38 131.56 93.99 131.76 C 90.59 132.25 88.25 128.85 87.26 126.05 Z" />
</g>
<g id="#565e6bb5">
<path fill="#565e6b" opacity="0.71" d=" M 5.23 64.10 C 9.12 62.69 14.32 62.64 17.15 66.05 C 13.14 63.46 7.91 63.41 3.91 65.98 C 4.24 65.51 4.90 64.57 5.23 64.10 Z" />
</g>
<g id="#f2f3feff">
<path fill="#f2f3fe" opacity="1.00" d=" M 3.91 65.98 C 7.91 63.41 13.14 63.46 17.15 66.05 C 17.65 66.78 18.14 67.51 18.62 68.26 C 19.53 70.02 21.77 71.84 20.24 73.96 C 18.44 77.03 16.85 81.10 12.92 81.86 C 10.00 82.13 6.48 82.26 4.41 79.77 C 0.87 76.50 1.41 71.09 3.02 66.99 C 3.24 66.74 3.69 66.23 3.91 65.98 M 7.90 66.89 C 6.98 67.68 4.03 67.63 5.34 69.57 L 4.82 69.66 C 2.51 72.37 3.82 76.63 6.14 78.91 C 9.72 81.06 15.40 80.65 17.09 76.29 C 19.22 72.97 16.68 69.06 14.09 66.86 C 12.21 65.72 9.92 66.77 7.90 66.89 Z" />
<path fill="#f2f3fe" opacity="1.00" d=" M 119.79 64.67 C 122.88 63.12 126.31 64.60 129.39 65.33 C 130.37 66.13 131.53 66.95 131.82 68.26 C 133.35 73.23 132.48 80.07 126.71 81.71 C 124.87 82.42 122.89 82.20 120.97 82.40 C 117.43 80.76 115.83 76.91 113.62 73.93 C 113.78 72.63 113.99 71.34 114.23 70.05 C 116.01 68.18 117.72 66.22 119.79 64.67 M 119.80 67.72 C 119.62 68.05 119.27 68.71 119.09 69.04 C 113.02 71.60 118.58 81.25 124.02 80.08 C 126.80 80.54 129.85 78.42 130.16 75.57 C 130.86 73.08 130.39 70.24 128.40 68.49 C 127.48 66.67 125.15 67.98 123.97 66.45 C 123.14 68.09 121.15 66.86 119.80 67.72 Z" />
<path fill="#f2f3fe" opacity="1.00" d=" M 23.10 111.04 C 25.50 109.10 27.74 106.45 31.08 106.37 C 33.81 106.21 37.46 106.56 38.71 109.39 C 41.83 113.63 39.98 119.42 36.72 123.00 L 36.44 123.30 C 33.93 122.88 31.56 125.41 29.07 124.03 C 26.07 123.49 24.82 120.27 22.14 119.18 L 22.13 118.23 C 22.26 115.84 21.58 113.12 23.10 111.04 M 26.88 109.85 C 26.74 110.16 26.46 110.79 26.32 111.11 C 24.40 110.33 24.66 112.95 24.27 113.97 C 24.01 117.62 26.43 121.07 29.86 122.26 C 33.99 122.84 38.93 119.49 38.02 114.93 C 38.00 113.50 37.78 110.88 35.77 111.04 C 35.65 110.66 35.40 109.92 35.28 109.55 C 33.76 110.35 32.06 107.10 31.16 109.35 C 29.73 109.20 28.24 109.39 26.88 109.85 Z" />
<path fill="#f2f3fe" opacity="1.00" d=" M 89.55 116.46 C 95.63 113.98 103.74 119.12 103.15 125.97 C 103.38 128.16 101.14 129.51 101.15 131.60 C 100.84 131.82 100.20 132.25 99.88 132.47 C 97.24 134.14 94.11 134.12 91.10 133.81 C 87.99 132.54 85.32 129.46 85.41 125.96 C 85.65 122.44 87.35 119.15 89.55 116.46 M 90.83 120.04 C 90.60 120.23 90.16 120.60 89.94 120.78 C 88.18 121.88 87.65 124.16 87.26 126.05 C 88.25 128.85 90.59 132.25 93.99 131.76 C 95.38 131.56 97.67 131.69 98.03 129.89 C 98.26 129.73 98.72 129.41 98.95 129.25 C 102.85 127.41 101.53 121.02 97.83 119.73 C 97.78 119.70 97.69 119.64 97.65 119.61 C 96.30 117.76 91.89 117.65 90.83 120.04 Z" />
</g>
<g id="#2f3a50d9">
<path fill="#2f3a50" opacity="0.85" d=" M 77.91 69.06 C 79.91 70.88 79.70 74.17 79.52 76.68 C 79.21 78.00 78.91 80.12 77.24 80.27 C 77.74 78.57 78.61 76.90 78.66 75.11 C 77.52 73.25 78.11 71.10 77.91 69.06 Z" />
</g>
<g id="#707a8be6">
<path fill="#707a8b" opacity="0.90" d=" M 124.02 80.08 C 118.58 81.25 113.02 71.60 119.09 69.04 C 117.38 71.26 117.03 74.85 119.08 76.96 C 120.51 79.27 123.53 79.30 125.90 78.86 C 128.02 78.99 128.59 76.47 130.16 75.57 C 129.85 78.42 126.80 80.54 124.02 80.08 Z" />
</g>
<g id="#687181dd">
<path fill="#687181" opacity="0.87" d=" M 131.82 68.26 C 132.36 68.40 133.45 68.67 134.00 68.80 L 134.00 75.82 C 131.68 76.51 132.43 79.40 130.76 80.64 C 129.45 81.36 128.10 82.00 126.79 82.69 L 126.71 81.71 C 132.48 80.07 133.35 73.23 131.82 68.26 Z" />
</g>
<g id="#313d55ec">
<path fill="#313d55" opacity="0.93" d=" M 84.71 74.80 C 90.47 73.83 96.67 74.78 102.60 74.43 C 103.98 83.62 98.98 92.42 93.07 99.07 C 91.02 100.97 89.32 103.42 86.74 104.63 C 85.17 104.82 84.98 102.81 85.43 101.75 C 85.80 102.01 86.54 102.52 86.92 102.77 C 94.48 96.75 101.14 88.14 100.94 78.06 C 100.78 77.71 100.48 77.00 100.32 76.65 C 95.79 75.95 90.84 76.14 86.41 76.45 C 85.03 81.06 83.33 85.52 80.02 89.12 C 80.15 90.46 79.47 92.28 80.74 93.26 C 82.75 95.00 83.41 97.70 84.71 99.93 C 82.89 100.45 82.52 98.36 81.70 97.34 C 80.33 94.75 78.44 92.46 77.24 89.79 C 77.78 88.26 79.33 87.45 80.33 86.26 C 83.33 83.22 84.07 78.84 84.71 74.80 Z" />
</g>
<g id="#2f3a4dc0">
<path fill="#2f3a4d" opacity="0.75" d=" M 102.76 94.34 C 103.06 94.00 103.66 93.32 103.96 92.98 C 103.77 93.55 103.39 94.68 103.20 95.25 L 102.76 94.34 Z" />
</g>
<g id="#2f3848ab">
<path fill="#2f3848" opacity="0.67" d=" M 44.87 109.12 L 45.86 108.78 C 46.12 109.14 46.65 109.85 46.92 110.21 C 46.41 109.94 45.38 109.39 44.87 109.12 Z" />
</g>
<g id="#616c7cd7">
<path fill="#616c7c" opacity="0.84" d=" M 97.83 119.73 C 101.53 121.02 102.85 127.41 98.95 129.25 C 99.38 127.53 101.03 125.85 100.20 124.01 C 100.14 122.20 98.42 121.30 97.83 119.73 Z" />
</g>
</svg>
