<?xml version="1.0" encoding="UTF-8" ?>
<!DOCTYPE svg PUBLIC "-//W3C//DTD SVG 1.1//EN" "http://www.w3.org/Graphics/SVG/1.1/DTD/svg11.dtd">
<svg width="82pt" height="91pt" viewBox="0 0 82 91" version="1.1" xmlns="http://www.w3.org/2000/svg">
<g id="#393f4989">
<path fill="#393f49" opacity="0.54" d=" M 33.61 0.00 L 46.71 0.00 L 48.37 0.97 C 43.96 0.94 39.55 0.64 35.14 0.92 L 33.61 0.00 Z" />
</g>
<g id="#ffffffff">
<path fill="#ffffff" opacity="1.00" d=" M 21.50 5.26 C 25.58 2.70 30.39 1.45 35.14 0.92 C 39.55 0.64 43.96 0.94 48.37 0.97 C 61.44 3.35 72.58 12.74 78.23 24.59 C 82.52 35.11 82.75 47.44 78.00 57.84 C 74.31 66.56 66.93 73.15 58.92 77.88 C 55.89 79.51 53.95 82.41 51.41 84.63 C 50.24 81.95 51.92 79.33 53.30 77.12 C 54.12 75.90 54.74 74.56 55.26 73.19 C 56.56 70.89 56.72 68.07 55.25 65.80 C 53.73 59.45 47.37 54.96 40.95 55.01 C 38.67 55.10 36.52 55.92 34.34 56.53 C 30.45 59.50 26.60 63.72 26.97 68.97 C 26.58 73.89 29.45 78.46 33.31 81.30 C 33.60 82.83 33.95 84.34 34.29 85.86 C 32.58 84.94 30.86 84.04 29.22 82.99 C 23.72 78.74 17.84 74.95 12.56 70.40 C 4.80 63.15 0.57 52.73 0.00 42.21 L 0.00 40.73 C 0.57 36.51 0.74 32.18 2.15 28.12 C 5.54 18.47 12.62 10.28 21.50 5.26 M 33.41 4.99 C 29.58 5.73 25.80 6.90 22.51 9.05 C 16.11 12.96 10.66 18.57 7.48 25.40 C 2.23 36.55 2.85 50.93 10.02 60.88 C 9.97 61.27 9.86 62.04 9.81 62.42 C 10.37 62.90 11.49 63.86 12.05 64.33 C 12.04 63.57 12.02 62.04 12.01 61.27 L 11.07 61.63 C 10.93 56.98 10.84 52.33 11.03 47.68 C 12.39 42.98 14.38 38.32 17.67 34.64 C 23.39 27.61 32.52 23.78 41.52 24.04 C 44.66 24.91 47.89 25.31 51.10 25.83 C 60.59 29.69 68.05 38.31 70.09 48.40 C 70.21 52.36 70.21 56.31 70.04 60.26 C 69.71 61.29 69.36 62.31 68.99 63.32 C 65.97 65.20 71.61 65.92 69.75 63.22 L 70.67 62.76 C 73.83 58.58 76.01 53.64 77.02 48.50 C 78.24 44.00 78.66 38.94 77.08 34.47 C 76.92 33.09 76.61 31.70 76.08 30.40 C 75.78 28.65 75.37 26.92 74.92 25.20 C 74.49 24.90 73.65 24.31 73.23 24.01 C 70.90 18.13 65.93 13.92 61.08 10.11 C 58.15 8.20 55.04 6.28 51.47 5.92 C 50.51 5.56 49.54 5.20 48.53 4.96 C 43.66 3.71 38.24 3.40 33.41 4.99 M 19.83 38.23 C 17.72 40.03 16.86 42.76 15.84 45.24 C 12.29 55.22 15.25 67.09 23.45 73.93 C 22.91 70.08 22.87 66.06 24.40 62.42 C 27.57 55.06 35.84 49.93 43.89 51.40 C 49.52 52.06 54.34 55.73 57.24 60.49 C 57.91 62.39 58.69 64.24 59.33 66.16 C 58.67 67.80 58.45 70.01 59.27 71.62 C 60.15 71.74 60.67 71.35 60.85 70.45 C 67.13 63.01 68.05 52.23 64.46 43.36 C 61.91 38.06 57.58 33.59 52.37 30.88 C 49.15 28.91 45.49 27.72 41.67 28.07 C 33.33 27.56 24.75 31.45 19.83 38.23 Z" />
</g>
<g id="#626a79ba">
<path fill="#626a79" opacity="0.73" d=" M 33.41 4.99 C 38.24 3.40 43.66 3.71 48.53 4.96 C 43.49 4.68 38.45 4.57 33.41 4.99 Z" />
</g>
<g id="#3c414a75">
<path fill="#3c414a" opacity="0.46" d=" M 51.47 5.92 C 55.04 6.28 58.15 8.20 61.08 10.11 C 57.94 8.59 54.71 7.22 51.47 5.92 Z" />
</g>
<g id="#59616da6">
<path fill="#59616d" opacity="0.65" d=" M 41.52 24.04 C 44.82 23.79 48.10 24.45 51.10 25.83 C 47.89 25.31 44.66 24.91 41.52 24.04 Z" />
</g>
<g id="#565b659d">
<path fill="#565b65" opacity="0.62" d=" M 73.23 24.01 C 73.65 24.31 74.49 24.90 74.92 25.20 C 75.37 26.92 75.78 28.65 76.08 30.40 C 75.15 28.26 74.14 26.16 73.23 24.01 Z" />
</g>
<g id="#3c424b7f">
<path fill="#3c424b" opacity="0.50" d=" M 41.67 28.07 C 45.49 27.72 49.15 28.91 52.37 30.88 C 48.90 29.60 45.29 28.78 41.67 28.07 Z" />
</g>
<g id="#636c7abe">
<path fill="#636c7a" opacity="0.75" d=" M 77.08 34.47 C 78.66 38.94 78.24 44.00 77.02 48.50 C 77.23 43.83 77.36 39.15 77.08 34.47 Z" />
</g>
<g id="#575d668e">
<path fill="#575d66" opacity="0.56" d=" M 15.84 45.24 C 16.86 42.76 17.72 40.03 19.83 38.23 C 18.42 40.52 17.12 42.87 15.84 45.24 Z" />
</g>
<g id="#63768bff">
<path fill="#63768b" opacity="1.00" d=" M 10.02 60.88 C 10.65 56.50 9.93 52.01 11.03 47.68 C 10.84 52.33 10.93 56.98 11.07 61.63 L 12.01 61.27 C 12.02 62.04 12.04 63.57 12.05 64.33 C 11.49 63.86 10.37 62.90 9.81 62.42 C 9.86 62.04 9.97 61.27 10.02 60.88 Z" />
<path fill="#63768b" opacity="1.00" d=" M 33.31 81.30 C 33.39 76.24 37.88 71.83 43.00 72.30 C 47.20 72.49 50.49 75.90 51.04 80.00 C 51.80 79.04 52.55 78.08 53.30 77.12 C 51.92 79.33 50.24 81.95 51.41 84.63 C 50.88 85.10 50.33 85.55 49.78 85.99 C 47.21 88.92 43.03 90.78 39.24 89.13 C 35.86 87.17 32.14 85.65 29.22 82.99 C 30.86 84.04 32.58 84.94 34.29 85.86 C 33.95 84.34 33.60 82.83 33.31 81.30 M 37.72 81.91 C 37.85 86.08 44.23 87.22 46.06 83.54 C 48.00 83.21 47.95 78.54 45.85 78.41 L 45.82 77.39 C 44.52 76.87 43.23 76.36 41.94 75.84 C 39.54 76.94 36.71 78.81 37.72 81.91 Z" />
</g>
<g id="#363c4686">
<path fill="#363c46" opacity="0.53" d=" M 70.09 48.40 C 71.37 52.26 71.27 56.41 70.04 60.26 C 70.21 56.31 70.21 52.36 70.09 48.40 Z" />
</g>
<g id="#879aafff">
<path fill="#879aaf" opacity="1.00" d=" M 68.99 63.32 L 69.75 63.22 C 71.61 65.92 65.97 65.20 68.99 63.32 Z" />
</g>
<g id="#666f7ec5">
<path fill="#666f7e" opacity="0.77" d=" M 55.25 65.80 C 56.72 68.07 56.56 70.89 55.26 73.19 C 54.70 70.76 54.72 68.24 55.25 65.80 Z" />
</g>
<g id="#47505cad">
<path fill="#47505c" opacity="0.68" d=" M 59.33 66.16 C 59.84 67.58 60.41 68.99 60.85 70.45 C 60.67 71.35 60.15 71.74 59.27 71.62 C 58.45 70.01 58.67 67.80 59.33 66.16 Z" />
</g>
<g id="#151c2978">
<path fill="#151c29" opacity="0.47" d=" M 45.85 78.41 C 47.95 78.54 48.00 83.21 46.06 83.54 C 46.00 81.83 45.89 80.12 45.85 78.41 Z" />
</g>
</svg>
