<?xml version="1.0" encoding="UTF-8" ?>
<!DOCTYPE svg PUBLIC "-//W3C//DTD SVG 1.1//EN" "http://www.w3.org/Graphics/SVG/1.1/DTD/svg11.dtd">
<svg width="131pt" height="84pt" viewBox="0 0 131 84" version="1.1" xmlns="http://www.w3.org/2000/svg">
<g id="#242c3e99">
<path fill="#242c3e" opacity="0.60" d=" M 69.05 0.00 L 81.93 0.00 L 83.37 0.91 C 76.88 0.91 70.31 0.56 63.92 1.98 C 65.64 1.37 67.34 0.66 69.05 0.00 Z" />
</g>
<g id="#64778cff">
<path fill="#64778c" opacity="1.00" d=" M 63.92 1.98 C 70.31 0.56 76.88 0.91 83.37 0.91 C 96.73 3.42 108.17 12.85 113.90 25.06 C 115.18 27.91 115.60 31.05 116.84 33.91 C 120.45 32.65 124.53 32.48 127.50 35.26 L 128.00 36.09 C 127.47 35.66 126.43 34.81 125.91 34.38 C 125.72 34.77 125.35 35.57 125.16 35.96 C 122.32 34.99 119.41 35.08 117.14 37.20 C 117.27 40.15 117.27 43.10 117.07 46.05 C 118.29 46.72 119.54 47.32 120.86 47.79 C 120.18 47.66 118.82 47.42 118.15 47.30 L 117.20 48.59 C 118.39 48.98 119.59 49.37 120.76 49.82 C 119.08 49.81 117.42 49.61 115.76 49.49 C 116.65 52.67 114.90 55.74 113.90 58.67 C 108.53 69.90 98.31 78.83 86.21 82.02 C 76.53 84.32 65.92 83.63 57.06 78.90 C 46.65 73.55 38.39 63.82 35.45 52.43 C 35.19 52.33 34.66 52.13 34.40 52.03 C 34.56 51.32 34.70 50.60 34.82 49.88 C 34.66 46.05 34.27 42.22 34.53 38.39 C 33.89 38.11 32.60 37.54 31.96 37.26 C 30.55 37.75 29.14 38.23 27.75 38.76 C 28.18 38.33 29.03 37.47 29.45 37.04 C 31.31 37.11 33.18 37.20 35.04 37.27 C 34.85 37.00 34.46 36.45 34.27 36.18 C 36.68 20.40 48.53 6.46 63.92 1.98 M 67.37 5.52 C 59.66 7.13 52.51 11.37 47.47 17.45 C 39.95 25.47 37.01 37.16 38.74 47.90 C 40.14 58.92 47.50 68.63 56.96 74.17 C 64.59 79.09 74.19 79.73 82.97 78.55 C 95.22 76.08 105.78 67.18 110.68 55.73 C 113.91 47.21 114.00 37.55 110.96 28.97 C 104.84 11.83 85.16 0.85 67.37 5.52 M 118.73 34.49 C 120.01 34.61 123.91 35.84 123.78 33.94 C 122.30 33.73 119.54 33.16 118.73 34.49 Z" />
</g>
<g id="#3d4553af">
<path fill="#3d4553" opacity="0.69" d=" M 71.39 29.09 C 71.66 27.20 76.44 26.88 76.79 28.84 C 74.99 28.93 73.19 29.02 71.39 29.09 Z" />
</g>
<g id="#707f94fb">
<path fill="#707f94" opacity="1.00" d=" M 69.25 29.49 C 69.37 29.43 69.61 29.29 69.72 29.22 C 69.61 29.29 69.37 29.43 69.25 29.49 Z" />
</g>
<g id="#d6e0ebfc">
<path fill="#d6e0eb" opacity="1.00" d=" M 69.72 29.22 L 71.39 29.09 C 73.19 29.02 74.99 28.93 76.79 28.84 C 77.68 28.96 79.45 29.21 80.34 29.33 C 80.45 29.39 80.67 29.50 80.77 29.56 C 81.45 29.92 82.82 30.63 83.50 30.99 L 84.02 33.10 L 81.67 32.31 C 80.17 31.75 78.65 31.28 77.12 30.85 C 75.97 29.49 73.90 29.37 72.81 30.87 C 72.40 30.93 71.57 31.07 71.16 31.14 C 70.69 31.16 69.75 31.20 69.29 31.22 L 68.97 32.01 C 66.30 33.64 64.21 36.04 62.84 38.84 C 61.11 42.91 61.76 47.95 64.89 51.17 C 66.53 52.98 68.44 54.72 70.90 55.23 C 72.06 56.02 73.50 56.45 74.90 56.10 L 75.72 55.98 C 78.35 55.81 80.98 55.10 82.93 53.24 C 83.74 52.62 84.48 51.92 85.13 51.13 C 87.88 48.05 88.61 43.68 87.55 39.75 L 89.02 39.20 C 89.01 42.84 89.23 46.56 88.20 50.10 C 87.34 52.34 85.39 53.88 83.57 55.34 C 83.50 55.38 83.38 55.47 83.31 55.51 L 81.66 56.44 C 81.53 56.54 81.27 56.74 81.14 56.84 L 79.76 56.82 C 78.45 56.61 77.21 57.10 76.10 57.73 C 75.56 57.72 74.48 57.70 73.95 57.69 C 72.83 57.06 71.59 56.58 70.29 56.81 L 68.84 56.84 C 68.72 56.76 68.48 56.60 68.36 56.51 C 64.90 54.86 62.35 51.92 60.98 48.36 C 60.48 45.04 60.58 41.68 61.01 38.36 C 61.68 36.21 62.97 34.33 64.49 32.69 C 64.53 32.64 64.62 32.56 64.67 32.51 C 66.08 31.34 67.62 30.34 69.25 29.49 C 69.37 29.43 69.61 29.29 69.72 29.22 Z" />
</g>
<g id="#596578eb">
<path fill="#596578" opacity="0.92" d=" M 80.34 29.33 C 80.45 29.39 80.67 29.50 80.77 29.56 C 80.67 29.50 80.45 29.39 80.34 29.33 Z" />
</g>
<g id="#6e798ad9">
<path fill="#6e798a" opacity="0.85" d=" M 72.81 30.87 C 73.90 29.37 75.97 29.49 77.12 30.85 C 75.69 31.28 74.25 31.28 72.81 30.87 Z" />
</g>
<g id="#667081d5">
<path fill="#667081" opacity="0.84" d=" M 69.29 31.22 C 69.75 31.20 70.69 31.16 71.16 31.14 C 70.61 31.36 69.51 31.79 68.97 32.01 L 69.29 31.22 Z" />
</g>
<g id="#8e99a8df">
<path fill="#8e99a8" opacity="0.87" d=" M 83.50 30.99 C 85.09 32.19 86.69 33.48 87.76 35.19 C 87.79 35.24 87.84 35.34 87.86 35.39 C 90.07 39.89 90.67 45.58 88.20 50.10 C 89.23 46.56 89.01 42.84 89.02 39.20 L 87.55 39.75 C 87.10 38.89 86.67 38.03 86.19 37.19 C 84.80 35.46 83.20 33.91 81.67 32.31 L 84.02 33.10 L 83.50 30.99 Z" />
</g>
<g id="#3d4756c7">
<path fill="#3d4756" opacity="0.78" d=" M 64.49 32.69 C 64.53 32.64 64.62 32.56 64.67 32.51 C 64.62 32.56 64.53 32.64 64.49 32.69 Z" />
<path fill="#3d4756" opacity="0.78" d=" M 83.31 55.51 C 83.38 55.47 83.50 55.38 83.57 55.34 C 83.50 55.38 83.38 55.47 83.31 55.51 Z" />
</g>
<g id="#fdfdffff">
<path fill="#fdfdff" opacity="1.00" d=" M 118.73 34.49 C 119.54 33.16 122.30 33.73 123.78 33.94 C 123.91 35.84 120.01 34.61 118.73 34.49 Z" />
</g>
<g id="#d0d9e4fa">
<path fill="#d0d9e4" opacity="0.98" d=" M 4.68 36.39 C 9.96 33.02 17.51 37.89 17.04 44.00 C 17.71 47.06 15.15 49.15 13.25 51.08 C 12.68 51.33 11.55 51.82 10.98 52.06 C 6.77 52.89 2.36 51.20 0.72 47.04 L 1.06 46.15 C 0.79 45.81 0.26 45.14 0.00 44.81 L 0.00 43.01 C 0.21 42.39 0.63 41.13 0.84 40.51 L 1.27 39.81 C 1.35 39.69 1.51 39.44 1.59 39.31 C 2.28 38.18 3.20 37.27 4.33 36.59 C 4.42 36.54 4.59 36.44 4.68 36.39 M 6.29 38.07 C 4.59 37.80 3.64 39.77 2.99 41.00 L 2.09 41.06 L 1.65 41.98 L 2.15 42.81 C 2.10 43.36 2.01 44.46 1.97 45.01 C 1.92 45.41 1.81 46.19 1.75 46.58 C 2.30 46.86 3.38 47.41 3.92 47.69 L 4.21 48.89 L 5.41 49.45 C 5.46 49.47 5.57 49.51 5.62 49.54 C 7.27 50.32 9.06 50.29 10.78 49.85 C 12.26 50.04 12.94 49.41 12.80 47.96 L 13.78 47.98 C 14.75 46.48 15.31 44.71 14.90 42.92 C 14.87 42.48 14.79 41.62 14.76 41.18 L 13.90 41.12 L 14.04 40.00 C 13.21 39.34 12.39 38.67 11.57 37.99 L 10.64 38.03 C 10.73 36.14 6.12 36.20 6.29 38.07 Z" />
</g>
<g id="#627081df">
<path fill="#627081" opacity="0.87" d=" M 28.79 35.75 C 29.99 34.51 31.98 34.32 33.25 35.57 C 31.79 36.19 30.30 36.25 28.79 35.75 Z" />
</g>
<g id="#8394a8fc">
<path fill="#8394a8" opacity="1.00" d=" M 87.76 35.19 C 87.79 35.24 87.84 35.34 87.86 35.39 C 87.84 35.34 87.79 35.24 87.76 35.19 Z" />
</g>
<g id="#ced8e4f9">
<path fill="#ced8e4" opacity="0.98" d=" M 125.16 35.96 C 125.35 35.57 125.72 34.77 125.91 34.38 C 126.43 34.81 127.47 35.66 128.00 36.09 C 129.43 38.06 129.96 40.45 130.09 42.85 L 129.34 43.32 C 129.33 43.79 129.30 44.74 129.29 45.22 C 128.87 45.75 128.04 46.81 127.63 47.34 C 127.56 47.41 127.42 47.55 127.34 47.62 C 125.55 49.23 123.22 50.30 120.76 49.82 C 119.59 49.37 118.39 48.98 117.20 48.59 L 118.15 47.30 C 118.82 47.42 120.18 47.66 120.86 47.79 L 121.83 47.97 C 122.34 47.96 123.34 47.93 123.84 47.92 L 124.40 47.17 L 125.20 46.74 C 125.34 46.62 125.62 46.39 125.76 46.28 C 126.15 45.72 126.93 44.59 127.32 44.02 C 128.70 42.33 128.22 39.86 126.93 38.27 L 126.59 37.72 C 126.49 37.59 126.30 37.33 126.20 37.19 C 125.94 36.88 125.42 36.27 125.16 35.96 Z" />
</g>
<g id="#303743a2">
<path fill="#303743" opacity="0.64" d=" M 4.33 36.59 C 4.42 36.54 4.59 36.44 4.68 36.39 C 4.59 36.44 4.42 36.54 4.33 36.59 Z" />
</g>
<g id="#e6edf5ff">
<path fill="#e6edf5" opacity="1.00" d=" M 23.88 40.22 C 25.09 38.30 26.82 36.83 28.79 35.75 C 30.30 36.25 31.79 36.19 33.25 35.57 L 34.27 36.18 C 34.46 36.45 34.85 37.00 35.04 37.27 C 33.18 37.20 31.31 37.11 29.45 37.04 C 29.03 37.47 28.18 38.33 27.75 38.76 C 27.09 39.38 26.46 40.05 25.87 40.74 C 24.98 42.86 24.95 45.19 24.65 47.43 C 23.96 45.09 23.89 42.64 23.88 40.22 Z" />
</g>
<g id="#687381c4">
<path fill="#687381" opacity="0.77" d=" M 6.29 38.07 C 6.12 36.20 10.73 36.14 10.64 38.03 C 9.19 38.13 7.74 38.10 6.29 38.07 Z" />
</g>
<g id="#292d3673">
<path fill="#292d36" opacity="0.45" d=" M 86.19 37.19 C 86.67 38.03 87.10 38.89 87.55 39.75 C 88.61 43.68 87.88 48.05 85.13 51.13 C 87.39 46.85 87.55 41.78 86.19 37.19 Z" />
</g>
<g id="#4f5766c1">
<path fill="#4f5766" opacity="0.76" d=" M 126.20 37.19 C 126.30 37.33 126.49 37.59 126.59 37.72 C 126.49 37.59 126.30 37.33 126.20 37.19 Z" />
</g>
<g id="#6c7a8def">
<path fill="#6c7a8d" opacity="0.94" d=" M 1.27 39.81 C 1.35 39.69 1.51 39.44 1.59 39.31 C 1.51 39.44 1.35 39.69 1.27 39.81 Z" />
</g>
<g id="#77879aec">
<path fill="#77879a" opacity="0.93" d=" M 60.98 48.36 C 59.41 45.34 59.35 41.34 61.01 38.36 C 60.58 41.68 60.48 45.04 60.98 48.36 Z" />
</g>
<g id="#656d7bbe">
<path fill="#656d7b" opacity="0.75" d=" M 64.89 51.17 C 61.76 47.95 61.11 42.91 62.84 38.84 C 62.31 43.05 62.32 47.57 64.89 51.17 Z" />
</g>
<g id="#30364084">
<path fill="#303640" opacity="0.52" d=" M 126.93 38.27 C 128.22 39.86 128.70 42.33 127.32 44.02 C 126.66 42.17 126.76 40.19 126.93 38.27 Z" />
</g>
<g id="#a7b0bbe2">
<path fill="#a7b0bb" opacity="0.89" d=" M 24.62 49.16 C 23.22 46.36 22.52 43.19 23.88 40.22 C 23.89 42.64 23.96 45.09 24.65 47.43 C 24.95 45.19 24.98 42.86 25.87 40.74 C 24.85 43.57 25.30 47.26 28.01 48.98 C 29.90 50.65 32.56 49.83 34.82 49.88 C 34.70 50.60 34.56 51.32 34.40 52.03 C 33.75 52.12 32.44 52.30 31.78 52.39 L 31.21 52.40 C 29.87 52.05 28.54 51.66 27.22 51.23 C 26.91 49.86 26.05 49.17 24.62 49.16 Z" />
</g>
<g id="#8797abfb">
<path fill="#8797ab" opacity="1.00" d=" M 0.00 41.06 L 0.84 40.51 C 0.63 41.13 0.21 42.39 0.00 43.01 L 0.00 41.06 Z" />
</g>
<g id="#3239428f">
<path fill="#323942" opacity="0.56" d=" M 2.09 41.06 L 2.99 41.00 C 2.78 41.45 2.36 42.35 2.15 42.81 L 1.65 41.98 L 2.09 41.06 Z" />
</g>
<g id="#353b458a">
<path fill="#353b45" opacity="0.54" d=" M 13.90 41.12 L 14.76 41.18 C 14.79 41.62 14.87 42.48 14.90 42.92 C 14.65 42.47 14.15 41.57 13.90 41.12 Z" />
</g>
<g id="#454e5dc6">
<path fill="#454e5d" opacity="0.78" d=" M 129.34 43.32 L 130.09 42.85 C 129.89 43.44 129.49 44.62 129.29 45.22 C 129.30 44.74 129.33 43.79 129.34 43.32 Z" />
</g>
<g id="#515c6cd5">
<path fill="#515c6c" opacity="0.84" d=" M 0.00 44.81 C 0.26 45.14 0.79 45.81 1.06 46.15 L 0.72 47.04 L 0.00 46.70 L 0.00 44.81 Z" />
</g>
<g id="#3d434d8a">
<path fill="#3d434d" opacity="0.54" d=" M 1.97 45.01 L 2.61 45.18 C 3.40 45.81 3.84 46.64 3.92 47.69 C 3.38 47.41 2.30 46.86 1.75 46.58 C 1.81 46.19 1.92 45.41 1.97 45.01 Z" />
</g>
<g id="#262b3380">
<path fill="#262b33" opacity="0.50" d=" M 125.20 46.74 C 125.34 46.62 125.62 46.39 125.76 46.28 C 125.62 46.39 125.34 46.62 125.20 46.74 Z" />
</g>
<g id="#2f353f91">
<path fill="#2f353f" opacity="0.57" d=" M 121.83 47.97 C 122.47 47.77 123.76 47.37 124.40 47.17 L 123.84 47.92 C 123.34 47.93 122.34 47.96 121.83 47.97 Z" />
</g>
<g id="#545f71d8">
<path fill="#545f71" opacity="0.85" d=" M 127.34 47.62 C 127.42 47.55 127.56 47.41 127.63 47.34 C 127.56 47.41 127.42 47.55 127.34 47.62 Z" />
</g>
<g id="#1f23295c">
<path fill="#1f2329" opacity="0.36" d=" M 10.78 49.85 C 10.84 48.54 11.51 47.91 12.80 47.96 C 12.94 49.41 12.26 50.04 10.78 49.85 Z" />
</g>
<g id="#484f5cae">
<path fill="#484f5c" opacity="0.68" d=" M 5.41 49.45 C 5.46 49.47 5.57 49.51 5.62 49.54 C 5.57 49.51 5.46 49.47 5.41 49.45 Z" />
</g>
<g id="#3c434e8c">
<path fill="#3c434e" opacity="0.55" d=" M 24.62 49.16 C 26.05 49.17 26.91 49.86 27.22 51.23 C 25.80 51.24 24.94 50.55 24.62 49.16 Z" />
</g>
<g id="#5a6576d2">
<path fill="#5a6576" opacity="0.82" d=" M 10.98 52.06 C 11.55 51.82 12.68 51.33 13.25 51.08 C 12.68 51.33 11.55 51.82 10.98 52.06 Z" />
</g>
<g id="#2d323f99">
<path fill="#2d323f" opacity="0.60" d=" M 31.21 52.40 L 31.78 52.39 C 31.68 52.41 31.49 52.44 31.39 52.45 L 31.21 52.40 Z" />
</g>
<g id="#4148528a">
<path fill="#414852" opacity="0.54" d=" M 75.72 55.98 C 78.22 55.35 80.64 54.42 82.93 53.24 C 80.98 55.10 78.35 55.81 75.72 55.98 Z" />
</g>
<g id="#22262d62">
<path fill="#22262d" opacity="0.38" d=" M 70.90 55.23 C 72.18 54.47 74.45 54.26 74.90 56.10 C 73.50 56.45 72.06 56.02 70.90 55.23 Z" />
</g>
<g id="#576376e8">
<path fill="#576376" opacity="0.91" d=" M 68.36 56.51 C 68.48 56.60 68.72 56.76 68.84 56.84 C 68.72 56.76 68.48 56.60 68.36 56.51 Z" />
</g>
<g id="#424c5bcf">
<path fill="#424c5b" opacity="0.81" d=" M 81.14 56.84 C 81.27 56.74 81.53 56.54 81.66 56.44 C 81.53 56.54 81.27 56.74 81.14 56.84 Z" />
</g>
<g id="#92a3b6f3">
<path fill="#92a3b6" opacity="0.95" d=" M 70.29 56.81 C 71.59 56.58 72.83 57.06 73.95 57.69 C 73.06 58.71 69.80 58.63 70.29 56.81 Z" />
</g>
<g id="#8798acf5">
<path fill="#8798ac" opacity="0.96" d=" M 76.10 57.73 C 77.21 57.10 78.45 56.61 79.76 56.82 C 80.27 58.64 77.00 58.73 76.10 57.73 Z" />
</g>
</svg>
