<?xml version="1.0" encoding="UTF-8" ?>
<!DOCTYPE svg PUBLIC "-//W3C//DTD SVG 1.1//EN" "http://www.w3.org/Graphics/SVG/1.1/DTD/svg11.dtd">
<svg width="91pt" height="92pt" viewBox="0 0 91 92" version="1.1" xmlns="http://www.w3.org/2000/svg">
<g id="#919eaeef">
<path fill="#919eae" opacity="0.94" d=" M 44.57 0.00 L 47.18 0.00 C 45.99 1.60 44.00 2.57 42.01 1.90 C 42.78 1.16 43.63 0.52 44.57 0.00 Z" />
</g>
<g id="#ffffffff">
<path fill="#ffffff" opacity="1.00" d=" M 47.18 0.00 L 47.88 0.00 C 49.32 1.05 51.31 2.52 53.12 1.42 C 53.40 1.80 53.97 2.57 54.25 2.95 C 56.67 5.40 56.38 8.98 56.06 12.13 C 54.01 16.73 48.03 19.54 43.50 16.72 C 39.60 15.10 38.42 10.56 38.87 6.71 C 39.55 5.26 40.40 3.88 41.34 2.57 C 41.51 2.40 41.84 2.07 42.01 1.90 C 44.00 2.57 45.99 1.60 47.18 0.00 M 43.44 6.41 C 40.92 9.86 44.82 15.36 48.92 13.78 C 51.12 13.42 51.97 11.29 52.96 9.59 C 52.76 7.28 51.48 5.39 49.63 4.05 C 47.35 3.99 44.53 3.95 43.44 6.41 Z" />
<path fill="#ffffff" opacity="1.00" d=" M 46.96 30.08 C 51.59 29.84 56.31 33.42 56.47 38.22 C 57.39 44.76 49.23 50.33 43.55 46.74 C 39.12 44.93 38.11 39.55 39.35 35.37 C 40.17 34.33 40.98 33.28 41.79 32.23 L 42.61 32.10 C 44.19 31.85 46.06 31.59 46.96 30.08 M 43.12 40.94 C 44.25 44.35 48.61 44.75 51.14 42.65 C 52.86 42.08 54.41 37.58 52.00 37.12 L 52.21 36.28 C 51.32 35.55 50.42 34.82 49.54 34.08 C 45.54 32.87 41.19 36.96 43.12 40.94 Z" />
<path fill="#ffffff" opacity="1.00" d=" M 41.13 65.62 C 36.93 60.92 38.80 52.91 44.81 50.81 C 47.55 50.74 50.33 50.93 52.91 51.89 C 54.49 53.31 55.54 55.23 56.16 57.25 C 56.04 58.71 55.90 60.18 55.95 61.65 L 55.96 62.73 C 55.26 63.72 54.58 64.71 53.89 65.71 C 51.35 67.81 48.11 68.58 44.85 68.11 L 44.66 67.76 C 44.11 66.75 43.55 65.75 42.98 64.76 C 42.64 64.92 41.94 65.24 41.60 65.40 L 41.13 65.62 M 46.14 54.88 C 43.24 55.03 42.18 58.79 42.84 61.21 C 43.57 63.96 46.68 65.26 49.26 64.36 C 50.35 63.71 51.64 63.03 52.00 61.70 C 53.88 61.17 53.81 56.02 51.27 56.28 L 51.05 55.08 L 49.61 55.10 C 50.12 53.31 45.94 53.06 46.14 54.88 Z" />
<path fill="#ffffff" opacity="1.00" d=" M 65.30 52.99 L 66.36 53.03 C 67.78 53.11 69.21 53.11 70.64 53.09 L 71.81 53.09 C 72.48 54.77 74.16 55.60 75.81 56.02 C 76.37 57.07 76.76 58.17 76.97 59.32 C 76.94 60.77 76.89 62.22 76.99 63.67 L 77.05 64.72 C 75.70 66.83 73.94 68.61 71.84 69.97 C 69.18 70.23 66.40 70.38 63.94 69.14 C 59.29 66.34 58.37 59.15 62.23 55.28 C 63.30 54.59 64.31 53.80 65.30 52.99 M 67.14 56.78 C 63.63 57.30 63.37 61.57 63.79 64.36 C 65.62 65.83 67.77 67.30 70.21 66.40 C 71.39 65.78 72.49 64.96 73.13 63.76 C 75.24 63.25 74.70 58.12 72.38 58.10 C 71.95 57.85 71.08 57.35 70.65 57.09 C 71.23 55.28 67.01 54.97 67.14 56.78 Z" />
<path fill="#ffffff" opacity="1.00" d=" M 21.08 55.11 C 24.65 54.29 28.89 54.66 31.26 57.80 C 33.79 60.51 34.00 64.77 32.25 67.95 C 31.62 68.73 30.97 69.50 30.29 70.24 C 27.03 73.37 21.58 72.91 18.37 69.94 C 17.70 68.84 16.91 67.81 16.09 66.81 C 14.82 62.15 16.97 57.47 21.08 55.11 M 19.92 65.82 C 20.84 68.50 23.56 68.96 26.03 69.22 L 25.99 68.08 C 27.32 68.07 28.71 67.06 28.91 65.70 C 30.71 66.21 31.04 62.01 29.21 62.18 C 28.98 59.34 25.45 57.82 23.02 58.78 C 19.96 59.39 19.08 63.18 19.92 65.82 Z" />
<path fill="#ffffff" opacity="1.00" d=" M 32.28 69.32 C 32.87 69.05 34.03 68.51 34.62 68.24 C 37.38 67.45 40.25 67.60 42.92 68.64 C 45.65 70.82 47.06 74.69 45.57 78.00 C 44.00 82.10 39.28 83.76 35.22 82.73 C 33.73 81.54 32.32 80.24 30.92 78.94 L 30.88 78.16 C 30.39 75.10 31.35 72.18 32.28 69.32 M 36.16 71.84 L 35.29 71.73 L 35.22 73.41 C 33.39 72.91 33.10 77.10 34.96 76.82 L 34.78 78.17 C 36.77 78.86 39.49 79.94 41.16 78.07 C 42.62 76.68 42.30 74.53 42.02 72.75 C 41.78 70.63 36.76 69.77 36.16 71.84 Z" />
<path fill="#ffffff" opacity="1.00" d=" M 50.90 70.78 C 53.06 68.42 56.03 67.20 59.22 67.14 C 61.95 68.47 64.79 69.74 66.43 72.46 C 66.63 73.91 66.89 75.36 66.98 76.83 C 66.16 79.79 64.44 82.40 61.96 84.22 C 61.57 84.35 60.81 84.61 60.42 84.74 L 59.63 85.03 C 56.29 85.19 52.83 84.06 50.78 81.29 C 49.28 77.91 49.26 74.11 50.90 70.78 M 53.73 73.84 C 52.57 75.46 53.49 77.44 53.75 79.20 C 55.53 80.61 57.67 81.29 59.96 81.12 C 60.88 80.24 61.81 79.37 62.76 78.52 C 62.98 76.78 62.95 75.03 62.71 73.30 C 61.70 72.55 60.70 71.80 59.70 71.05 C 57.44 71.03 54.73 71.52 53.73 73.84 Z" />
</g>
<g id="#677584c4">
<path fill="#677584" opacity="0.77" d=" M 47.88 0.00 L 52.06 0.00 C 52.32 0.35 52.85 1.06 53.12 1.42 C 51.31 2.52 49.32 1.05 47.88 0.00 Z" />
</g>
<g id="#62758bff">
<path fill="#62758b" opacity="1.00" d=" M 1.03 47.05 C 0.24 24.86 19.07 3.73 41.34 2.57 C 40.40 3.88 39.55 5.26 38.87 6.71 C 18.12 9.48 2.13 30.77 5.16 51.46 C 6.11 61.95 11.46 71.76 19.60 78.40 C 30.05 87.56 45.14 89.71 58.30 86.13 C 58.64 85.85 59.30 85.30 59.63 85.03 L 60.42 84.74 C 60.81 84.61 61.57 84.35 61.96 84.22 C 64.44 82.40 66.16 79.79 66.98 76.83 C 66.49 79.01 65.68 81.10 65.00 83.23 C 74.99 77.49 82.97 67.82 85.55 56.47 C 87.91 46.05 86.40 34.62 80.65 25.52 C 75.15 17.03 66.79 10.22 56.95 7.50 C 56.68 9.05 56.41 10.60 56.06 12.13 C 56.38 8.98 56.67 5.40 54.25 2.95 C 66.96 5.02 77.81 13.60 84.54 24.32 C 90.17 34.04 91.85 45.86 89.53 56.82 C 87.23 66.60 81.63 75.59 73.76 81.85 C 66.95 87.96 57.84 90.47 49.03 92.00 L 44.24 92.00 C 33.91 90.96 23.38 87.68 15.86 80.20 C 6.31 72.04 0.82 59.59 1.03 47.05 Z" />
</g>
<g id="#747b86bf">
<path fill="#747b86" opacity="0.75" d=" M 42.61 32.10 C 42.31 30.28 45.56 29.08 46.96 30.08 C 46.06 31.59 44.19 31.85 42.61 32.10 Z" />
</g>
<g id="#444a548b">
<path fill="#444a54" opacity="0.55" d=" M 52.00 37.12 C 54.41 37.58 52.86 42.08 51.14 42.65 C 51.25 40.79 51.51 38.93 52.00 37.12 Z" />
</g>
<g id="#32374079">
<path fill="#323740" opacity="0.47" d=" M 44.81 50.81 C 47.45 49.33 50.65 50.07 52.91 51.89 C 50.33 50.93 47.55 50.74 44.81 50.81 Z" />
</g>
<g id="#2b2f3879">
<path fill="#2b2f38" opacity="0.47" d=" M 66.36 53.03 C 66.35 51.11 70.75 51.13 70.64 53.09 C 69.21 53.11 67.78 53.11 66.36 53.03 Z" />
</g>
<g id="#5c616a99">
<path fill="#5c616a" opacity="0.60" d=" M 71.81 53.09 C 73.39 52.68 76.29 54.19 75.81 56.02 C 74.16 55.60 72.48 54.77 71.81 53.09 Z" />
</g>
<g id="#5a6270bd">
<path fill="#5a6270" opacity="0.74" d=" M 46.14 54.88 C 45.94 53.06 50.12 53.31 49.61 55.10 C 48.45 55.13 47.29 55.05 46.14 54.88 Z" />
</g>
<g id="#525965a5">
<path fill="#525965" opacity="0.65" d=" M 51.27 56.28 C 53.81 56.02 53.88 61.17 52.00 61.70 C 51.82 59.89 51.57 58.08 51.27 56.28 Z" />
</g>
<g id="#6a7483c9">
<path fill="#6a7483" opacity="0.79" d=" M 67.14 56.78 C 67.01 54.97 71.23 55.28 70.65 57.09 C 69.47 57.03 68.31 56.93 67.14 56.78 Z" />
</g>
<g id="#3439438a">
<path fill="#343943" opacity="0.54" d=" M 56.16 57.25 C 58.04 57.35 57.82 61.72 55.95 61.65 C 55.90 60.18 56.04 58.71 56.16 57.25 Z" />
</g>
<g id="#7d8693d0">
<path fill="#7d8693" opacity="0.82" d=" M 72.38 58.10 C 74.70 58.12 75.24 63.25 73.13 63.76 C 72.96 61.87 72.82 59.96 72.38 58.10 Z" />
</g>
<g id="#2a2e3778">
<path fill="#2a2e37" opacity="0.47" d=" M 76.97 59.32 C 78.88 59.32 78.89 63.72 76.99 63.67 C 76.89 62.22 76.94 60.77 76.97 59.32 Z" />
</g>
<g id="#707783b0">
<path fill="#707783" opacity="0.69" d=" M 42.84 61.21 C 44.35 63.31 46.72 64.31 49.26 64.36 C 46.68 65.26 43.57 63.96 42.84 61.21 Z" />
</g>
<g id="#6a7483ca">
<path fill="#6a7483" opacity="0.79" d=" M 29.21 62.18 C 31.04 62.01 30.71 66.21 28.91 65.70 C 28.96 64.52 29.06 63.35 29.21 62.18 Z" />
</g>
<g id="#707883b2">
<path fill="#707883" opacity="0.70" d=" M 63.79 64.36 C 65.85 65.27 67.97 66.06 70.21 66.40 C 67.77 67.30 65.62 65.83 63.79 64.36 Z" />
</g>
<g id="#606874ae">
<path fill="#606874" opacity="0.68" d=" M 41.60 65.40 C 41.94 65.24 42.64 64.92 42.98 64.76 C 43.55 65.75 44.11 66.75 44.66 67.76 C 44.22 67.98 43.35 68.42 42.92 68.64 C 40.25 67.60 37.38 67.45 34.62 68.24 C 36.23 66.11 39.26 67.20 41.41 67.44 C 41.50 66.76 41.43 66.06 41.60 65.40 Z" />
</g>
<g id="#666d78b1">
<path fill="#666d78" opacity="0.69" d=" M 19.92 65.82 C 20.65 66.56 21.38 67.29 22.12 68.01 C 23.41 68.05 24.70 68.08 25.99 68.08 L 26.03 69.22 C 23.56 68.96 20.84 68.50 19.92 65.82 Z" />
</g>
<g id="#444c5899">
<path fill="#444c58" opacity="0.60" d=" M 30.29 70.24 C 30.97 69.50 31.62 68.73 32.25 67.95 C 32.26 68.29 32.28 68.98 32.28 69.32 C 31.35 72.18 30.39 75.10 30.88 78.16 C 29.26 75.68 31.08 72.83 30.29 70.24 Z" />
</g>
<g id="#555a649c">
<path fill="#555a64" opacity="0.61" d=" M 36.16 71.84 C 36.76 69.77 41.78 70.63 42.02 72.75 C 40.07 72.41 38.12 72.09 36.16 71.84 Z" />
</g>
<g id="#3c424b85">
<path fill="#3c424b" opacity="0.52" d=" M 50.78 81.29 C 48.14 78.46 48.29 73.58 50.90 70.78 C 49.26 74.11 49.28 77.91 50.78 81.29 Z" />
</g>
<g id="#4e5560a5">
<path fill="#4e5560" opacity="0.65" d=" M 34.96 76.82 C 33.10 77.10 33.39 72.91 35.22 73.41 C 35.22 74.55 35.13 75.69 34.96 76.82 Z" />
</g>
</svg>
