<svg width="233" height="865" viewBox="0 0 233 865" fill="none" xmlns="http://www.w3.org/2000/svg">
<path d="M116.123 94.3696L159.957 132.271V229.77C146.294 218.939 116.123 193.782 116.123 193.782V94.3696Z" fill="#4B5E73"/>
<path d="M224.048 487L232.141 495V527.793L149.247 618.744C149.006 570.875 149.006 570.875 149.006 570.875C149.006 570.875 200.265 514.865 224.048 487Z" fill="#4B5E73"/>
<path d="M96.7583 716V767L31 835V783L96.7583 716Z" fill="#4B5E73"/>
<path d="M7.05735e-06 0H233V494.786V865H0L95.0968 766.332C95.0968 766.332 95.1423 693.146 95.2788 676.519C96.8107 674.74 95.5366 678.995 95.2788 676.519C95.2788 676.519 207.737 552.78 231.336 527.805V494.786L152.125 420.805V132.742C152.125 132.742 7.73515 7.07501 7.05735e-06 0Z" fill="#15171E"/>
</svg>
