<?xml version="1.0" encoding="UTF-8" ?>
<!DOCTYPE svg PUBLIC "-//W3C//DTD SVG 1.1//EN" "http://www.w3.org/Graphics/SVG/1.1/DTD/svg11.dtd">
<svg width="820pt" height="820pt" viewBox="0 0 820 820" version="1.1" xmlns="http://www.w3.org/2000/svg">
<g id="#4b5e73ff">
<path fill="#4b5e73" opacity="1.00" d=" M 400.51 0.00 L 417.63 0.00 C 466.92 1.05 516.03 10.81 561.82 29.14 C 627.25 55.14 685.76 98.35 729.73 153.34 C 775.32 209.96 805.34 278.95 815.72 350.90 C 818.28 368.26 819.59 385.79 820.00 403.33 L 820.00 417.65 C 818.61 488.66 798.57 559.22 762.05 620.16 C 733.59 667.88 695.35 709.73 650.27 742.22 C 598.85 779.50 538.63 804.51 475.94 814.67 C 456.65 817.85 437.13 819.48 417.60 820.00 L 402.41 820.00 C 325.37 818.54 248.86 795.00 184.58 752.47 C 128.17 715.47 81.25 664.24 49.26 604.85 C 18.05 547.29 1.12 482.15 0.00 416.69 L 0.00 402.39 C 0.48 385.14 1.76 367.91 4.29 350.84 C 16.08 268.83 53.57 190.76 110.22 130.31 C 160.92 75.75 226.88 35.56 298.58 15.42 C 331.73 5.97 366.08 1.05 400.51 0.00 M 158.53 190.82 C 159.89 193.29 161.51 195.61 163.13 197.91 C 185.39 230.36 207.61 262.84 229.91 295.27 C 356.27 295.28 482.64 295.25 609.00 295.29 C 611.46 295.34 614.15 294.76 615.89 292.88 C 620.42 288.03 625.01 283.20 630.01 278.81 C 622.70 267.32 614.74 256.24 607.18 244.90 C 594.85 226.86 582.70 208.69 570.28 190.72 C 433.03 190.83 295.78 190.64 158.53 190.82 M 638.97 344.06 C 637.11 345.95 634.90 347.96 632.06 347.78 C 519.32 347.80 406.58 347.68 293.85 347.85 C 297.98 354.70 302.98 361.01 307.28 367.77 C 314.51 377.92 321.16 388.46 328.38 398.62 C 341.57 417.48 354.04 436.84 367.65 455.40 C 371.89 461.83 376.17 468.24 380.52 474.60 C 384.56 467.91 389.46 461.74 393.07 454.81 C 395.79 453.26 398.94 453.73 401.94 453.70 C 476.97 453.67 552.00 453.72 627.03 453.71 C 644.41 453.61 661.81 453.90 679.18 453.49 C 684.81 445.36 690.49 437.25 695.98 429.02 C 701.52 419.73 708.11 411.12 713.87 401.97 C 695.97 375.57 678.07 349.17 660.08 322.83 C 653.11 329.97 645.94 336.92 638.97 344.06 M 281.11 429.75 C 263.47 456.21 245.59 482.52 227.87 508.93 C 205.29 542.33 182.98 575.91 160.23 609.19 C 298.26 609.23 436.30 609.13 574.33 609.24 C 591.48 584.96 607.91 560.21 624.54 535.57 C 631.30 525.87 637.51 515.78 644.75 506.43 C 600.83 506.12 556.90 506.38 512.98 506.29 C 456.98 506.34 400.98 506.20 344.98 506.29 C 340.92 506.22 336.74 506.76 332.84 505.35 C 324.28 492.25 315.31 479.43 306.56 466.45 C 299.69 456.02 292.14 446.04 285.67 435.34 C 284.19 433.45 283.41 430.80 281.11 429.75 Z" />
</g>
<g id="#ffffffff">
<path fill="#ffffff" opacity="1.00" d=" M 158.53 190.82 C 295.78 190.64 433.03 190.83 570.28 190.72 C 582.70 208.69 594.85 226.86 607.18 244.90 C 614.74 256.24 622.70 267.32 630.01 278.81 C 625.01 283.20 620.42 288.03 615.89 292.88 C 614.15 294.76 611.46 295.34 609.00 295.29 C 482.64 295.25 356.27 295.28 229.91 295.27 C 207.61 262.84 185.39 230.36 163.13 197.91 C 161.51 195.61 159.89 193.29 158.53 190.82 Z" />
<path fill="#ffffff" opacity="1.00" d=" M 638.97 344.06 C 645.94 336.92 653.11 329.97 660.08 322.83 C 678.07 349.17 695.97 375.57 713.87 401.97 C 708.11 411.12 701.52 419.73 695.98 429.02 C 690.49 437.25 684.81 445.36 679.18 453.49 C 661.81 453.90 644.41 453.61 627.03 453.71 C 552.00 453.72 476.97 453.67 401.94 453.70 C 398.94 453.73 395.79 453.26 393.07 454.81 C 389.46 461.74 384.56 467.91 380.52 474.60 C 376.17 468.24 371.89 461.83 367.65 455.40 C 354.04 436.84 341.57 417.48 328.38 398.62 C 321.16 388.46 314.51 377.92 307.28 367.77 C 302.98 361.01 297.98 354.70 293.85 347.85 C 406.58 347.68 519.32 347.80 632.06 347.78 C 634.90 347.96 637.11 345.95 638.97 344.06 Z" />
<path fill="#ffffff" opacity="1.00" d=" M 281.11 429.75 C 283.41 430.80 284.19 433.45 285.67 435.34 C 292.14 446.04 299.69 456.02 306.56 466.45 C 315.31 479.43 324.28 492.25 332.84 505.35 C 336.74 506.76 340.92 506.22 344.98 506.29 C 400.98 506.20 456.98 506.34 512.98 506.29 C 556.90 506.38 600.83 506.12 644.75 506.43 C 637.51 515.78 631.30 525.87 624.54 535.57 C 607.91 560.21 591.48 584.96 574.33 609.24 C 436.30 609.13 298.26 609.23 160.23 609.19 C 182.98 575.91 205.29 542.33 227.87 508.93 C 245.59 482.52 263.47 456.21 281.11 429.75 Z" />
</g>
</svg>
