<?xml version="1.0" encoding="UTF-8" ?>
<!DOCTYPE svg PUBLIC "-//W3C//DTD SVG 1.1//EN" "http://www.w3.org/Graphics/SVG/1.1/DTD/svg11.dtd">
<svg width="1401pt" height="1053pt" viewBox="0 0 1401 1053" version="1.1" xmlns="http://www.w3.org/2000/svg">
<g id="#1c1c1c48">
<path fill="#1c1c1c" opacity="0.28" d=" M 0.00 0.00 L 0.76 0.00 C 1.03 0.52 1.56 1.56 1.83 2.08 C 1.37 2.01 0.46 1.86 0.00 1.79 L 0.00 0.00 Z" />
<path fill="#1c1c1c" opacity="0.28" d=" M 72.08 104.55 C 73.16 104.99 73.80 105.85 73.98 107.16 C 72.38 106.95 71.74 106.08 72.08 104.55 Z" />
</g>
<g id="#000000df">
<path fill="#000000" opacity="0.87" d=" M 0.76 0.00 L 1037.55 0.00 L 1038.17 0.84 C 994.43 1.21 950.69 0.88 906.96 1.01 C 612.32 0.98 317.68 1.01 23.04 1.00 C 17.02 1.05 10.99 0.91 4.98 1.07 C 3.92 1.04 3.11 1.50 2.55 2.42 L 1.96 2.74 L 1.83 2.08 C 1.56 1.56 1.03 0.52 0.76 0.00 Z" />
<path fill="#000000" opacity="0.87" d=" M 6.28 1053.00 C 6.62 1052.69 7.30 1052.06 7.63 1051.74 C 22.40 1052.33 37.18 1051.83 51.96 1052.01 C 371.30 1051.99 690.65 1052.01 1010.00 1052.01 C 1022.49 1052.18 1035.00 1051.59 1047.48 1052.28 L 1046.76 1053.00 L 6.28 1053.00 Z" />
</g>
<g id="#000000ff">
<path fill="#000000" opacity="1.00" d=" M 2.55 2.42 C 3.11 1.50 3.92 1.04 4.98 1.07 C 10.99 0.91 17.02 1.05 23.04 1.00 C 317.68 1.01 612.32 0.98 906.96 1.01 C 950.69 0.88 994.43 1.21 1038.17 0.84 C 1078.37 59.96 1118.53 119.12 1158.72 178.25 C 1168.36 192.71 1178.53 206.86 1187.83 221.52 C 1183.19 223.89 1179.78 228.09 1176.44 231.97 C 1176.30 232.10 1176.04 232.36 1175.90 232.49 C 1169.21 238.22 1163.38 244.89 1157.00 250.96 C 1154.81 252.87 1153.33 255.39 1151.37 257.49 C 1149.82 258.78 1148.07 259.80 1146.59 261.16 L 1146.36 261.23 C 1145.74 261.35 1144.50 261.61 1143.88 261.73 L 1143.30 262.14 C 1141.90 261.52 1140.75 261.78 1139.85 262.91 C 944.56 262.82 749.27 262.90 553.99 262.87 C 429.63 262.95 305.27 262.73 180.92 262.98 C 180.77 261.72 180.13 260.95 179.00 260.67 L 179.05 260.23 C 179.22 258.83 178.58 257.98 177.13 257.66 L 177.10 257.29 C 177.19 255.85 176.52 254.98 175.11 254.67 L 175.08 254.33 C 175.18 252.81 174.48 251.92 173.01 251.66 C 172.66 251.16 171.96 250.17 171.62 249.67 C 171.56 249.58 171.44 249.41 171.38 249.33 C 171.02 248.80 170.31 247.76 169.95 247.23 C 169.86 245.87 169.22 245.04 168.03 244.73 L 168.12 244.21 C 168.28 242.84 167.62 242.00 166.14 241.68 L 166.12 241.26 C 166.19 239.84 165.52 238.98 164.12 238.67 L 164.09 238.32 C 164.19 236.85 163.52 235.96 162.08 235.63 C 160.35 233.19 158.69 230.69 156.95 228.26 C 156.86 226.88 156.21 226.01 155.00 225.67 L 155.06 225.21 C 155.22 223.83 154.58 222.97 153.13 222.66 L 153.09 222.29 C 153.19 220.85 152.53 219.97 151.11 219.67 L 151.08 219.32 C 151.16 217.85 150.48 216.94 149.04 216.60 C 148.01 215.17 146.99 213.74 145.98 212.30 C 145.88 210.93 145.23 210.07 144.04 209.71 L 144.12 209.20 C 144.29 207.83 143.63 207.00 142.15 206.71 L 142.12 206.24 C 142.17 204.82 141.50 203.96 140.10 203.65 L 140.06 203.30 C 140.16 201.82 139.49 200.92 138.04 200.60 C 137.05 199.22 136.09 197.81 135.16 196.39 C 134.15 194.26 132.85 192.27 131.17 190.61 L 131.03 190.26 C 131.20 188.82 130.56 187.96 129.12 187.66 L 129.07 187.31 C 129.20 185.85 128.55 184.98 127.11 184.68 L 127.08 184.33 C 127.17 182.82 126.49 181.93 125.02 181.64 C 124.76 181.26 124.24 180.49 123.98 180.11 C 123.74 178.84 123.09 177.93 122.02 177.37 C 121.35 176.37 120.69 175.37 120.05 174.36 C 120.29 172.92 119.65 172.02 118.14 171.67 L 118.11 171.28 C 118.19 169.84 117.52 168.97 116.11 168.67 L 116.09 168.30 C 116.17 166.84 115.50 165.94 114.06 165.62 C 113.04 164.23 112.07 162.81 111.13 161.37 C 110.17 159.21 109.05 157.08 107.15 155.59 L 107.02 155.26 C 107.20 153.82 106.56 152.95 105.11 152.66 L 105.07 152.31 C 105.20 150.85 104.54 149.96 103.09 149.64 C 102.38 148.63 101.68 147.63 100.99 146.61 C 99.21 142.98 97.01 139.45 94.15 136.57 L 94.02 136.27 C 94.19 134.83 93.56 133.95 92.10 133.65 L 92.07 133.31 C 92.18 131.83 91.51 130.94 90.06 130.62 C 89.05 129.23 88.08 127.82 87.14 126.38 C 85.59 123.18 83.86 119.92 81.11 117.58 L 80.99 117.34 C 81.22 115.85 80.60 114.97 79.11 114.67 L 79.07 114.34 C 79.20 112.85 78.53 111.95 77.07 111.66 C 76.70 111.15 75.97 110.14 75.60 109.64 C 75.55 109.57 75.45 109.43 75.40 109.36 C 75.05 108.81 74.34 107.71 73.98 107.16 C 73.80 105.85 73.16 104.99 72.08 104.55 L 72.14 104.21 C 72.30 102.86 71.63 102.02 70.14 101.70 L 70.09 101.24 C 70.16 99.81 69.49 98.93 68.07 98.59 C 66.34 96.15 64.67 93.67 63.00 91.19 C 62.79 89.91 62.15 89.00 61.08 88.46 L 61.01 88.35 C 60.35 86.05 59.05 83.99 57.11 82.56 L 56.97 82.30 C 57.20 80.82 56.57 79.93 55.08 79.63 L 55.05 79.35 C 55.19 77.87 54.53 76.96 53.08 76.64 C 52.71 76.15 51.98 75.16 51.62 74.67 C 51.56 74.58 51.44 74.41 51.38 74.33 C 51.03 73.79 50.33 72.71 49.99 72.18 C 49.81 70.87 49.17 70.00 48.07 69.57 L 48.13 69.19 C 48.26 67.86 47.61 66.99 46.20 66.58 L 46.17 66.24 C 46.20 64.83 45.51 63.98 44.12 63.69 L 44.07 63.33 C 44.20 61.85 43.53 60.95 42.07 60.64 C 41.01 59.17 39.99 57.68 38.99 56.17 C 38.80 54.87 38.16 53.99 37.07 53.54 L 37.12 53.19 C 37.24 51.87 36.60 50.99 35.21 50.54 L 35.19 50.19 C 35.18 48.81 34.50 47.92 33.15 47.53 L 33.12 47.23 C 33.13 45.82 32.47 44.90 31.16 44.48 L 31.14 44.28 C 31.19 42.82 30.50 41.95 29.06 41.65 C 28.73 41.19 28.06 40.26 27.72 39.79 C 27.62 39.64 27.42 39.35 27.32 39.21 C 26.98 38.70 26.32 37.69 25.99 37.18 C 25.81 35.86 25.17 34.99 24.07 34.56 L 24.13 34.20 C 24.25 32.87 23.61 31.99 22.20 31.54 L 22.03 31.33 C 21.35 28.99 20.05 26.89 17.99 25.52 C 17.65 25.05 16.97 24.13 16.62 23.66 C 16.57 23.58 16.45 23.41 16.39 23.33 C 16.05 22.79 15.36 21.73 15.02 21.20 C 14.82 19.91 14.17 19.03 13.08 18.57 L 13.13 18.20 C 13.23 16.88 12.58 15.98 11.19 15.51 L 11.18 15.18 C 11.31 13.68 10.26 12.03 8.65 11.96 C 8.41 11.61 7.91 10.91 7.67 10.56 C 7.64 10.51 7.58 10.40 7.55 10.34 L 7.16 9.37 C 7.20 7.89 6.50 6.98 5.06 6.65 C 4.80 6.28 4.27 5.55 4.00 5.18 C 3.64 4.49 2.91 3.11 2.55 2.42 Z" />
<path fill="#000000" opacity="1.00" d=" M 1260.26 335.60 C 1261.15 334.38 1262.30 333.39 1263.29 332.24 C 1308.39 398.38 1353.25 464.68 1398.32 530.85 C 1386.93 548.47 1375.12 565.81 1363.12 583.02 C 1353.04 599.94 1342.08 616.35 1330.40 632.21 C 1324.43 640.99 1318.87 650.06 1312.54 658.59 C 1311.39 660.39 1309.11 661.14 1307.06 661.02 C 1293.38 661.30 1279.70 661.14 1266.03 661.20 C 1262.22 661.28 1258.34 660.80 1254.62 661.77 C 1203.76 662.01 1152.87 661.81 1102.01 661.87 C 1050.82 661.66 999.63 662.29 948.47 661.78 C 944.08 660.48 939.48 661.26 935.00 661.09 C 901.67 660.93 868.34 661.00 835.02 661.11 C 830.87 661.22 826.62 660.60 822.58 661.77 C 797.22 661.91 771.80 662.35 746.45 661.78 C 743.38 660.82 740.15 661.06 736.99 661.08 C 713.99 660.93 690.98 660.98 667.97 661.08 C 664.80 661.08 661.57 660.81 658.50 661.77 C 638.32 662.03 618.13 661.76 597.94 661.91 C 594.12 661.53 590.32 664.11 589.81 668.03 C 588.90 670.62 587.08 672.76 585.62 675.06 C 585.51 675.23 585.29 675.57 585.18 675.74 C 584.79 676.33 584.02 677.49 583.63 678.08 C 583.52 678.25 583.29 678.60 583.17 678.77 C 582.80 679.34 582.04 680.48 581.67 681.05 C 581.55 681.23 581.33 681.58 581.22 681.75 C 580.81 682.34 580.01 683.51 579.60 684.10 C 579.49 684.28 579.26 684.63 579.14 684.81 C 578.77 685.38 578.01 686.52 577.63 687.09 C 577.52 687.27 577.29 687.62 577.18 687.80 C 576.80 688.37 576.04 689.49 575.66 690.06 C 575.54 690.24 575.30 690.62 575.18 690.81 C 574.81 691.37 574.06 692.48 573.69 693.03 C 573.57 693.23 573.33 693.62 573.21 693.82 L 572.83 694.59 C 571.85 695.08 571.29 695.89 571.13 697.03 L 570.65 697.64 C 569.47 698.05 568.86 698.83 568.81 699.97 L 568.75 700.71 C 567.47 701.01 566.82 701.77 566.81 702.98 L 566.79 703.67 C 565.55 704.00 564.91 704.79 564.87 706.03 L 564.81 706.66 C 563.55 706.98 562.91 707.78 562.87 709.05 L 562.80 709.70 C 561.55 710.00 560.88 710.79 560.79 712.05 L 560.60 713.25 C 559.54 712.68 558.51 712.04 558.03 710.90 C 552.87 701.90 546.45 693.73 540.81 685.05 C 530.59 668.51 519.13 652.78 507.32 637.36 L 507.31 637.35 C 505.04 632.88 501.60 629.18 498.97 624.94 C 487.79 607.90 475.78 591.43 464.62 574.38 C 457.84 564.41 451.13 554.39 444.14 544.58 C 433.72 528.55 422.25 513.25 411.55 497.42 C 407.06 491.12 403.59 484.14 398.78 478.07 C 390.58 466.28 382.63 454.32 374.36 442.58 C 369.00 434.58 363.86 426.42 358.02 418.76 C 354.30 414.10 351.78 408.62 347.99 404.02 C 346.20 401.37 343.70 399.11 342.61 396.06 C 625.77 395.92 908.93 396.03 1192.08 396.01 C 1193.23 395.92 1194.35 395.67 1195.46 395.26 L 1195.88 395.21 C 1203.86 395.25 1208.67 387.87 1214.01 383.04 C 1227.07 369.08 1241.38 356.38 1254.37 342.37 C 1256.46 340.23 1258.90 338.34 1260.26 335.60 Z" />
<path fill="#000000" opacity="1.00" d=" M 311.30 600.49 C 316.72 608.89 322.52 617.04 327.74 625.58 C 329.18 630.52 332.63 634.50 335.21 638.87 C 337.59 642.08 339.39 645.87 342.62 648.34 C 342.66 648.38 342.73 648.48 342.77 648.52 C 343.39 651.32 345.44 653.57 347.62 655.33 C 347.69 655.41 347.84 655.58 347.92 655.67 C 348.73 658.31 350.36 660.66 352.62 662.27 C 353.41 663.32 354.15 664.42 354.86 665.55 C 355.29 668.51 357.42 670.73 358.89 673.23 C 363.31 680.35 368.79 686.74 373.11 693.92 C 375.09 696.83 376.74 700.13 379.62 702.28 C 379.71 702.39 379.89 702.61 379.98 702.72 C 380.76 705.33 382.45 707.50 384.49 709.26 C 385.97 711.33 387.38 713.46 388.77 715.60 C 389.49 718.73 391.72 721.13 393.36 723.80 C 394.95 726.07 396.20 728.71 398.59 730.27 C 400.74 733.33 402.86 736.42 404.89 739.56 C 406.73 743.40 408.99 747.24 412.15 750.13 C 419.67 761.41 427.59 772.41 434.91 783.81 C 436.23 786.97 438.26 789.88 440.86 792.09 C 444.80 793.27 448.87 794.18 453.02 794.01 C 595.67 793.75 738.33 794.09 880.98 794.00 C 991.76 793.96 1102.55 794.09 1213.33 793.93 C 1217.33 794.28 1221.36 794.08 1225.39 794.10 C 1224.65 794.68 1223.93 795.27 1223.22 795.87 C 1221.81 796.35 1220.40 797.64 1220.84 799.29 C 1220.78 799.38 1220.66 799.56 1220.59 799.66 C 1217.78 801.39 1216.28 804.54 1214.86 807.40 C 1214.79 807.49 1214.66 807.66 1214.60 807.74 C 1213.38 808.39 1212.30 809.25 1211.62 810.46 C 1205.94 818.83 1200.94 827.64 1194.86 835.74 C 1188.94 843.60 1183.85 852.03 1178.28 860.14 C 1171.96 869.17 1166.14 878.52 1159.82 887.55 C 1154.66 894.00 1151.10 901.53 1145.99 908.01 C 1141.59 914.27 1137.18 920.52 1133.22 927.07 C 1127.74 935.52 1121.44 943.42 1116.33 952.11 C 1111.45 960.11 1105.25 967.22 1100.67 975.40 C 1095.59 983.88 1088.87 991.22 1083.90 999.78 C 1077.86 1010.13 1069.76 1019.03 1063.31 1029.10 C 1057.94 1036.76 1052.76 1044.57 1047.48 1052.28 C 1035.00 1051.59 1022.49 1052.18 1010.00 1052.01 C 690.65 1052.01 371.30 1051.99 51.96 1052.01 C 37.18 1051.83 22.40 1052.33 7.63 1051.74 C 8.64 1050.08 9.59 1048.36 10.23 1046.54 C 10.36 1046.40 10.62 1046.12 10.75 1045.98 C 11.08 1045.46 11.73 1044.42 12.06 1043.91 C 12.13 1043.77 12.28 1043.50 12.35 1043.37 C 13.33 1042.70 14.14 1041.90 14.79 1040.94 C 22.74 1029.51 30.31 1017.83 38.15 1006.33 C 39.91 1003.43 42.41 1000.88 43.25 997.52 C 43.37 997.38 43.60 997.11 43.72 996.97 C 44.06 996.46 44.74 995.43 45.08 994.91 C 45.15 994.77 45.29 994.50 45.36 994.37 C 47.50 992.86 48.81 990.56 50.29 988.48 C 58.65 975.81 67.15 963.23 75.63 950.65 C 76.73 949.06 77.77 947.41 78.24 945.53 C 78.28 945.48 78.35 945.36 78.38 945.31 C 80.24 944.19 81.26 942.26 82.43 940.53 C 124.25 878.63 165.81 816.56 207.62 754.65 C 209.81 750.94 213.00 747.72 214.24 743.53 C 214.35 743.40 214.58 743.14 214.70 743.01 C 215.03 742.49 215.71 741.45 216.05 740.94 C 216.13 740.79 216.28 740.51 216.36 740.37 C 217.51 739.57 218.46 738.57 219.19 737.39 C 239.09 707.94 258.90 678.43 278.76 648.95 C 280.08 646.92 281.68 645.00 282.19 642.58 C 282.32 642.43 282.59 642.14 282.72 641.99 C 283.05 641.47 283.72 640.43 284.06 639.91 C 284.14 639.76 284.30 639.47 284.38 639.32 C 287.52 637.14 288.91 633.36 291.17 630.40 C 296.23 623.37 300.82 616.01 305.79 608.93 C 306.47 607.94 306.89 606.86 307.07 605.67 L 307.12 605.62 C 309.04 604.40 309.99 602.26 311.30 600.49 Z" />
</g>
<g id="#1b1b1b40">
<path fill="#1b1b1b" opacity="0.25" d=" M 1.96 2.74 L 2.55 2.42 C 2.91 3.11 3.64 4.49 4.00 5.18 C 2.57 5.00 1.89 4.19 1.96 2.74 Z" />
</g>
<g id="#1a1a1aad">
<path fill="#1a1a1a" opacity="0.68" d=" M 5.06 6.65 C 6.50 6.98 7.20 7.89 7.16 9.37 C 5.87 8.97 5.17 8.07 5.06 6.65 Z" />
<path fill="#1a1a1a" opacity="0.68" d=" M 77.07 111.66 C 78.53 111.95 79.20 112.85 79.07 114.34 C 77.82 113.92 77.15 113.02 77.07 111.66 Z" />
<path fill="#1a1a1a" opacity="0.68" d=" M 1398.32 530.85 C 1399.53 531.65 1398.18 532.83 1397.76 533.64 C 1386.69 550.25 1375.72 566.91 1364.14 583.16 C 1353.96 600.26 1342.92 616.87 1331.09 632.88 C 1325.29 641.48 1319.79 650.28 1313.74 658.70 C 1311.71 661.97 1307.45 662.08 1304.02 662.01 C 1287.55 661.88 1271.07 662.30 1254.62 661.77 C 1258.34 660.80 1262.22 661.28 1266.03 661.20 C 1279.70 661.14 1293.38 661.30 1307.06 661.02 C 1309.11 661.14 1311.39 660.39 1312.54 658.59 C 1318.87 650.06 1324.43 640.99 1330.40 632.21 C 1342.08 616.35 1353.04 599.94 1363.12 583.02 C 1375.12 565.81 1386.93 548.47 1398.32 530.85 Z" />
</g>
<g id="#3030306a">
<path fill="#303030" opacity="0.42" d=" M 7.55 10.34 C 7.58 10.40 7.64 10.51 7.67 10.56 C 7.64 10.51 7.58 10.40 7.55 10.34 Z" />
<path fill="#303030" opacity="0.42" d=" M 585.18 675.74 C 585.29 675.57 585.51 675.23 585.62 675.06 C 585.51 675.23 585.29 675.57 585.18 675.74 Z" />
<path fill="#303030" opacity="0.42" d=" M 579.14 684.81 C 579.26 684.63 579.49 684.28 579.60 684.10 C 579.49 684.28 579.26 684.63 579.14 684.81 Z" />
</g>
<g id="#1b1b1ba8">
<path fill="#1b1b1b" opacity="0.66" d=" M 8.65 11.96 C 10.26 12.03 11.31 13.68 11.18 15.18 C 9.56 15.07 9.12 13.21 8.65 11.96 Z" />
</g>
<g id="#1c1c1c97">
<path fill="#1c1c1c" opacity="0.59" d=" M 11.19 15.51 C 12.58 15.98 13.23 16.88 13.13 18.20 C 11.77 17.89 11.12 16.99 11.19 15.51 Z" />
<path fill="#1c1c1c" opacity="0.59" d=" M 35.21 50.54 C 36.60 50.99 37.24 51.87 37.12 53.19 C 35.76 52.90 35.13 52.02 35.21 50.54 Z" />
</g>
<g id="#1b1b1b42">
<path fill="#1b1b1b" opacity="0.26" d=" M 13.08 18.57 C 14.17 19.03 14.82 19.91 15.02 21.20 C 13.42 21.00 12.78 20.12 13.08 18.57 Z" />
</g>
<g id="#30303081">
<path fill="#303030" opacity="0.51" d=" M 16.39 23.33 C 16.45 23.41 16.57 23.58 16.62 23.66 C 16.57 23.58 16.45 23.41 16.39 23.33 Z" />
<path fill="#303030" opacity="0.51" d=" M 573.21 693.82 C 573.33 693.62 573.57 693.23 573.69 693.03 C 573.57 693.23 573.33 693.62 573.21 693.82 Z" />
</g>
<g id="#171717b5">
<path fill="#171717" opacity="0.71" d=" M 17.99 25.52 C 20.05 26.89 21.35 28.99 22.03 31.33 C 20.37 29.63 19.03 27.65 17.99 25.52 Z" />
</g>
<g id="#1c1c1c9a">
<path fill="#1c1c1c" opacity="0.60" d=" M 22.20 31.54 C 23.61 31.99 24.25 32.87 24.13 34.20 C 22.79 33.90 22.15 33.01 22.20 31.54 Z" />
</g>
<g id="#1c1c1c49">
<path fill="#1c1c1c" opacity="0.29" d=" M 24.07 34.56 C 25.17 34.99 25.81 35.86 25.99 37.18 C 24.40 36.96 23.76 36.09 24.07 34.56 Z" />
<path fill="#1c1c1c" opacity="0.29" d=" M 48.07 69.57 C 49.17 70.00 49.81 70.87 49.99 72.18 C 48.40 71.96 47.76 71.09 48.07 69.57 Z" />
</g>
<g id="#2e2e2e87">
<path fill="#2e2e2e" opacity="0.53" d=" M 27.32 39.21 C 27.42 39.35 27.62 39.64 27.72 39.79 C 27.62 39.64 27.42 39.35 27.32 39.21 Z" />
<path fill="#2e2e2e" opacity="0.53" d=" M 51.38 74.33 C 51.44 74.41 51.56 74.58 51.62 74.67 C 51.56 74.58 51.44 74.41 51.38 74.33 Z" />
</g>
<g id="#1b1b1bad">
<path fill="#1b1b1b" opacity="0.68" d=" M 29.06 41.65 C 30.50 41.95 31.19 42.82 31.14 44.28 C 29.84 43.93 29.15 43.06 29.06 41.65 Z" />
<path fill="#1b1b1b" opacity="0.68" d=" M 53.08 76.64 C 54.53 76.96 55.19 77.87 55.05 79.35 C 53.80 78.91 53.14 78.01 53.08 76.64 Z" />
</g>
<g id="#1c1c1ca5">
<path fill="#1c1c1c" opacity="0.65" d=" M 31.16 44.48 C 32.47 44.90 33.13 45.82 33.12 47.23 C 31.74 46.87 31.08 45.95 31.16 44.48 Z" />
<path fill="#1c1c1c" opacity="0.65" d=" M 79.11 114.67 C 80.60 114.97 81.22 115.85 80.99 117.34 C 79.76 116.86 79.14 115.97 79.11 114.67 Z" />
<path fill="#1c1c1c" opacity="0.65" d=" M 162.08 235.63 C 163.52 235.96 164.19 236.85 164.09 238.32 C 162.81 237.93 162.14 237.03 162.08 235.63 Z" />
</g>
<g id="#1c1c1c9f">
<path fill="#1c1c1c" opacity="0.62" d=" M 33.15 47.53 C 34.50 47.92 35.18 48.81 35.19 50.19 C 33.81 49.89 33.13 49.00 33.15 47.53 Z" />
</g>
<g id="#1b1b1b43">
<path fill="#1b1b1b" opacity="0.26" d=" M 37.07 53.54 C 38.16 53.99 38.80 54.87 38.99 56.17 C 37.40 55.96 36.76 55.09 37.07 53.54 Z" />
</g>
<g id="#1b1b1baa">
<path fill="#1b1b1b" opacity="0.67" d=" M 42.07 60.64 C 43.53 60.95 44.20 61.85 44.07 63.33 C 42.81 62.91 42.15 62.01 42.07 60.64 Z" />
</g>
<g id="#1c1c1ca4">
<path fill="#1c1c1c" opacity="0.64" d=" M 44.12 63.69 C 45.51 63.98 46.20 64.83 46.17 66.24 C 44.83 65.96 44.14 65.11 44.12 63.69 Z" />
<path fill="#1c1c1c" opacity="0.64" d=" M 103.09 149.64 C 104.54 149.96 105.20 150.85 105.07 152.31 C 103.80 151.91 103.14 151.01 103.09 149.64 Z" />
</g>
<g id="#1c1c1c9c">
<path fill="#1c1c1c" opacity="0.61" d=" M 46.20 66.58 C 47.61 66.99 48.26 67.86 48.13 69.19 C 46.79 68.90 46.14 68.03 46.20 66.58 Z" />
</g>
<g id="#1c1c1ca7">
<path fill="#1c1c1c" opacity="0.65" d=" M 55.08 79.63 C 56.57 79.93 57.20 80.82 56.97 82.30 C 55.74 81.83 55.11 80.94 55.08 79.63 Z" />
<path fill="#1c1c1c" opacity="0.65" d=" M 138.04 200.60 C 139.49 200.92 140.16 201.82 140.06 203.30 C 138.79 202.88 138.12 201.98 138.04 200.60 Z" />
</g>
<g id="#181818ac">
<path fill="#181818" opacity="0.67" d=" M 57.11 82.56 C 59.05 83.99 60.35 86.05 61.01 88.35 C 59.52 86.56 58.05 84.71 57.11 82.56 Z" />
</g>
<g id="#1c1c1c44">
<path fill="#1c1c1c" opacity="0.27" d=" M 61.08 88.46 C 62.15 89.00 62.79 89.91 63.00 91.19 C 61.39 90.94 60.75 90.03 61.08 88.46 Z" />
</g>
<g id="#1c1c1ca3">
<path fill="#1c1c1c" opacity="0.64" d=" M 68.07 98.59 C 69.49 98.93 70.16 99.81 70.09 101.24 C 68.78 100.90 68.11 100.01 68.07 98.59 Z" />
<path fill="#1c1c1c" opacity="0.64" d=" M 127.11 184.68 C 128.55 184.98 129.20 185.85 129.07 187.31 C 127.79 186.93 127.13 186.05 127.11 184.68 Z" />
</g>
<g id="#1d1d1d9b">
<path fill="#1d1d1d" opacity="0.61" d=" M 70.14 101.70 C 71.63 102.02 72.30 102.86 72.14 104.21 C 70.83 103.94 70.17 103.10 70.14 101.70 Z" />
<path fill="#1d1d1d" opacity="0.61" d=" M 118.14 171.67 C 119.65 172.02 120.29 172.92 120.05 174.36 C 118.81 173.88 118.17 172.98 118.14 171.67 Z" />
<path fill="#1d1d1d" opacity="0.61" d=" M 153.13 222.66 C 154.58 222.97 155.22 223.83 155.06 225.21 C 153.76 224.90 153.12 224.05 153.13 222.66 Z" />
<path fill="#1d1d1d" opacity="0.61" d=" M 177.13 257.66 C 178.58 257.98 179.22 258.83 179.05 260.23 C 177.76 259.90 177.12 259.05 177.13 257.66 Z" />
</g>
<g id="#2e2e2e85">
<path fill="#2e2e2e" opacity="0.52" d=" M 75.40 109.36 C 75.45 109.43 75.55 109.57 75.60 109.64 C 75.55 109.57 75.45 109.43 75.40 109.36 Z" />
</g>
<g id="#17171795">
<path fill="#171717" opacity="0.58" d=" M 81.11 117.58 C 83.86 119.92 85.59 123.18 87.14 126.38 C 84.78 123.73 82.71 120.75 81.11 117.58 Z" />
</g>
<g id="#1c1c1ca9">
<path fill="#1c1c1c" opacity="0.66" d=" M 90.06 130.62 C 91.51 130.94 92.18 131.83 92.07 133.31 C 90.80 132.89 90.13 132.00 90.06 130.62 Z" />
<path fill="#1c1c1c" opacity="0.66" d=" M 114.06 165.62 C 115.50 165.94 116.17 166.84 116.09 168.30 C 114.80 167.92 114.13 167.02 114.06 165.62 Z" />
</g>
<g id="#1d1d1da1">
<path fill="#1d1d1d" opacity="0.63" d=" M 92.10 133.65 C 93.56 133.95 94.19 134.83 94.02 136.27 C 92.75 135.88 92.11 135.00 92.10 133.65 Z" />
</g>
<g id="#1717178a">
<path fill="#171717" opacity="0.54" d=" M 94.15 136.57 C 97.01 139.45 99.21 142.98 100.99 146.61 C 98.37 143.54 95.93 140.20 94.15 136.57 Z" />
</g>
<g id="#1c1c1c9e">
<path fill="#1c1c1c" opacity="0.62" d=" M 105.11 152.66 C 106.56 152.95 107.20 153.82 107.02 155.26 C 105.76 154.89 105.12 154.02 105.11 152.66 Z" />
</g>
<g id="#19191985">
<path fill="#191919" opacity="0.52" d=" M 107.15 155.59 C 109.05 157.08 110.17 159.21 111.13 161.37 C 109.49 159.70 107.98 157.81 107.15 155.59 Z" />
</g>
<g id="#1c1c1ca1">
<path fill="#1c1c1c" opacity="0.63" d=" M 116.11 168.67 C 117.52 168.97 118.19 169.84 118.11 171.28 C 116.79 170.94 116.12 170.07 116.11 168.67 Z" />
</g>
<g id="#1c1c1c40">
<path fill="#1c1c1c" opacity="0.25" d=" M 122.02 177.37 C 123.09 177.93 123.74 178.84 123.98 180.11 C 122.38 179.89 121.72 178.98 122.02 177.37 Z" />
</g>
<g id="#1b1b1bac">
<path fill="#1b1b1b" opacity="0.67" d=" M 125.02 181.64 C 126.49 181.93 127.17 182.82 127.08 184.33 C 125.83 183.92 125.14 183.02 125.02 181.64 Z" />
</g>
<g id="#1d1d1d9d">
<path fill="#1d1d1d" opacity="0.62" d=" M 129.12 187.66 C 130.56 187.96 131.20 188.82 131.03 190.26 C 129.76 189.89 129.12 189.03 129.12 187.66 Z" />
</g>
<g id="#18181867">
<path fill="#181818" opacity="0.40" d=" M 131.17 190.61 C 132.85 192.27 134.15 194.26 135.16 196.39 C 133.40 194.81 131.99 192.83 131.17 190.61 Z" />
</g>
<g id="#1d1d1da0">
<path fill="#1d1d1d" opacity="0.63" d=" M 140.10 203.65 C 141.50 203.96 142.17 204.82 142.12 206.24 C 140.79 205.93 140.12 205.07 140.10 203.65 Z" />
<path fill="#1d1d1d" opacity="0.63" d=" M 164.12 238.67 C 165.52 238.98 166.19 239.84 166.12 241.26 C 164.79 240.94 164.12 240.08 164.12 238.67 Z" />
</g>
<g id="#1d1d1d99">
<path fill="#1d1d1d" opacity="0.60" d=" M 142.15 206.71 C 143.63 207.00 144.29 207.83 144.12 209.20 C 142.81 208.94 142.16 208.11 142.15 206.71 Z" />
<path fill="#1d1d1d" opacity="0.60" d=" M 166.14 241.68 C 167.62 242.00 168.28 242.84 168.12 244.21 C 166.80 243.92 166.15 243.07 166.14 241.68 Z" />
</g>
<g id="#1d1d1d46">
<path fill="#1d1d1d" opacity="0.27" d=" M 144.04 209.71 C 145.23 210.07 145.88 210.93 145.98 212.30 C 144.44 212.01 143.79 211.15 144.04 209.71 Z" />
<path fill="#1d1d1d" opacity="0.27" d=" M 168.03 244.73 C 169.22 245.04 169.86 245.87 169.95 247.23 C 168.41 247.00 167.77 246.17 168.03 244.73 Z" />
</g>
<g id="#1c1c1caa">
<path fill="#1c1c1c" opacity="0.67" d=" M 149.04 216.60 C 150.48 216.94 151.16 217.85 151.08 219.32 C 149.80 218.91 149.13 218.01 149.04 216.60 Z" />
<path fill="#1c1c1c" opacity="0.67" d=" M 173.01 251.66 C 174.48 251.92 175.18 252.81 175.08 254.33 C 173.85 253.93 173.15 253.03 173.01 251.66 Z" />
</g>
<g id="#1d1d1da2">
<path fill="#1d1d1d" opacity="0.64" d=" M 151.11 219.67 C 152.53 219.97 153.19 220.85 153.09 222.29 C 151.79 221.92 151.13 221.05 151.11 219.67 Z" />
</g>
<g id="#1e1e1e7c">
<path fill="#1e1e1e" opacity="0.49" d=" M 1176.44 231.97 C 1179.78 228.09 1183.19 223.89 1187.83 221.52 C 1184.35 225.30 1180.69 229.07 1176.44 231.97 Z" />
</g>
<g id="#1d1d1d48">
<path fill="#1d1d1d" opacity="0.28" d=" M 155.00 225.67 C 156.21 226.01 156.86 226.88 156.95 228.26 C 155.44 227.97 154.79 227.11 155.00 225.67 Z" />
</g>
<g id="#1b1b1b7a">
<path fill="#1b1b1b" opacity="0.48" d=" M 1157.00 250.96 C 1163.38 244.89 1169.21 238.22 1175.90 232.49 C 1174.76 234.73 1172.74 236.27 1171.05 238.04 C 1164.17 244.82 1157.66 251.94 1150.88 258.80 C 1149.72 260.04 1148.34 261.09 1146.59 261.16 C 1148.07 259.80 1149.82 258.78 1151.37 257.49 C 1153.33 255.39 1154.81 252.87 1157.00 250.96 Z" />
</g>
<g id="#2f2f2f83">
<path fill="#2f2f2f" opacity="0.51" d=" M 171.38 249.33 C 171.44 249.41 171.56 249.58 171.62 249.67 C 171.56 249.58 171.44 249.41 171.38 249.33 Z" />
</g>
<g id="#1d1d1da3">
<path fill="#1d1d1d" opacity="0.64" d=" M 175.11 254.67 C 176.52 254.98 177.19 255.85 177.10 257.29 C 175.79 256.94 175.12 256.07 175.11 254.67 Z" />
</g>
<g id="#1d1d1d47">
<path fill="#1d1d1d" opacity="0.28" d=" M 179.00 260.67 C 180.13 260.95 180.77 261.72 180.92 262.98 C 179.38 263.01 178.74 262.24 179.00 260.67 Z" />
</g>
<g id="#28282895">
<path fill="#282828" opacity="0.58" d=" M 1143.88 261.73 C 1144.50 261.61 1145.74 261.35 1146.36 261.23 C 1145.74 261.35 1144.50 261.61 1143.88 261.73 Z" />
</g>
<g id="#28282887">
<path fill="#282828" opacity="0.53" d=" M 1139.85 262.91 C 1140.75 261.78 1141.90 261.52 1143.30 262.14 C 1142.34 263.15 1141.18 263.41 1139.85 262.91 Z" />
</g>
<g id="#121212c7">
<path fill="#121212" opacity="0.78" d=" M 1254.30 341.24 C 1256.27 339.35 1257.95 337.10 1260.26 335.60 C 1258.90 338.34 1256.46 340.23 1254.37 342.37 C 1241.38 356.38 1227.07 369.08 1214.01 383.04 C 1208.67 387.87 1203.86 395.25 1195.88 395.21 L 1196.03 394.58 C 1200.42 394.32 1204.09 391.08 1207.32 388.31 C 1222.92 372.56 1238.69 356.98 1254.30 341.24 Z" />
</g>
<g id="#202020aa">
<path fill="#202020" opacity="0.67" d=" M 341.65 395.23 C 393.42 394.75 445.19 395.12 496.97 395.01 C 681.66 394.99 866.35 395.01 1051.04 394.99 C 1099.18 395.07 1147.36 394.78 1195.46 395.26 C 1194.35 395.67 1193.23 395.92 1192.08 396.01 C 908.93 396.03 625.77 395.92 342.61 396.06 C 343.70 399.11 346.20 401.37 347.99 404.02 C 351.78 408.62 354.30 414.10 358.02 418.76 C 363.86 426.42 369.00 434.58 374.36 442.58 C 382.63 454.32 390.58 466.28 398.78 478.07 C 403.59 484.14 407.06 491.12 411.55 497.42 C 422.25 513.25 433.72 528.55 444.14 544.58 C 451.13 554.39 457.84 564.41 464.62 574.38 C 475.78 591.43 487.79 607.90 498.97 624.94 C 501.60 629.18 505.04 632.88 507.31 637.35 L 506.44 637.17 C 475.21 592.13 444.93 546.43 413.31 501.66 C 407.51 493.61 402.97 484.74 396.87 476.90 C 386.36 461.48 375.59 446.24 365.34 430.64 C 360.59 423.45 355.02 416.82 350.71 409.35 C 348.51 405.93 345.92 402.79 343.46 399.57 C 342.75 398.18 341.29 396.93 341.65 395.23 Z" />
</g>
<g id="#1e1e1e98">
<path fill="#1e1e1e" opacity="0.60" d=" M 310.48 599.80 C 310.69 599.97 311.10 600.32 311.30 600.49 C 309.99 602.26 309.04 604.40 307.12 605.62 C 307.92 603.51 309.35 601.73 310.48 599.80 Z" />
</g>
<g id="#191919b6">
<path fill="#191919" opacity="0.71" d=" M 289.79 630.83 C 295.59 622.48 300.93 613.77 307.07 605.67 C 306.89 606.86 306.47 607.94 305.79 608.93 C 300.82 616.01 296.23 623.37 291.17 630.40 C 288.91 633.36 287.52 637.14 284.38 639.32 C 285.82 636.27 287.97 633.65 289.79 630.83 Z" />
</g>
<g id="#191919b1">
<path fill="#191919" opacity="0.69" d=" M 327.74 625.58 C 332.62 633.21 337.76 640.70 342.62 648.34 C 339.39 645.87 337.59 642.08 335.21 638.87 C 332.63 634.50 329.18 630.52 327.74 625.58 Z" />
<path fill="#191919" opacity="0.69" d=" M 196.49 769.41 C 202.51 760.85 207.89 751.82 214.24 743.53 C 213.00 747.72 209.81 750.94 207.62 754.65 C 165.81 816.56 124.25 878.63 82.43 940.53 C 81.26 942.26 80.24 944.19 78.38 945.31 C 82.41 938.22 87.41 931.71 91.83 924.85 C 126.76 873.07 161.58 821.21 196.49 769.41 Z" />
</g>
<g id="#1a1a1aae">
<path fill="#1a1a1a" opacity="0.68" d=" M 507.32 637.36 C 519.13 652.78 530.59 668.51 540.81 685.05 C 546.45 693.73 552.87 701.90 558.03 710.90 C 558.51 712.04 559.54 712.68 560.60 713.25 C 560.00 714.49 558.51 714.10 558.21 712.83 C 552.30 702.60 544.92 693.36 538.69 683.35 C 533.15 674.92 527.63 666.47 521.76 658.27 C 516.82 651.73 511.79 645.27 507.30 638.41 L 507.32 637.36 Z" />
<path fill="#1a1a1a" opacity="0.68" d=" M 1211.62 810.46 C 1212.30 809.25 1213.38 808.39 1214.60 807.74 C 1207.89 817.67 1201.80 828.04 1194.66 837.68 C 1188.22 846.36 1182.71 855.68 1176.45 864.48 C 1170.39 873.11 1165.02 882.21 1158.72 890.68 C 1154.14 896.88 1150.57 903.75 1145.89 909.88 C 1138.85 919.31 1133.10 929.63 1126.08 939.07 C 1120.23 947.01 1115.66 955.80 1109.63 963.62 C 1103.87 971.05 1099.74 979.58 1093.89 986.95 C 1089.78 992.24 1086.20 997.88 1082.67 1003.55 C 1077.04 1012.49 1070.02 1020.42 1064.34 1029.31 C 1059.06 1037.21 1053.23 1044.75 1048.50 1053.00 L 1046.76 1053.00 L 1047.48 1052.28 C 1052.76 1044.57 1057.94 1036.76 1063.31 1029.10 C 1069.76 1019.03 1077.86 1010.13 1083.90 999.78 C 1088.87 991.22 1095.59 983.88 1100.67 975.40 C 1105.25 967.22 1111.45 960.11 1116.33 952.11 C 1121.44 943.42 1127.74 935.52 1133.22 927.07 C 1137.18 920.52 1141.59 914.27 1145.99 908.01 C 1151.10 901.53 1154.66 894.00 1159.82 887.55 C 1166.14 878.52 1171.96 869.17 1178.28 860.14 C 1183.85 852.03 1188.94 843.60 1194.86 835.74 C 1200.94 827.64 1205.94 818.83 1211.62 810.46 Z" />
<path fill="#1a1a1a" opacity="0.68" d=" M 62.09 969.04 C 67.55 961.26 72.41 953.03 78.24 945.53 C 77.77 947.41 76.73 949.06 75.63 950.65 C 67.15 963.23 58.65 975.81 50.29 988.48 C 48.81 990.56 47.50 992.86 45.36 994.37 C 50.49 985.66 56.59 977.53 62.09 969.04 Z" />
</g>
<g id="#232323a4">
<path fill="#232323" opacity="0.64" d=" M 282.72 641.99 C 283.05 641.47 283.72 640.43 284.06 639.91 C 283.72 640.43 283.05 641.47 282.72 641.99 Z" />
<path fill="#232323" opacity="0.64" d=" M 10.75 1045.98 C 11.08 1045.46 11.73 1044.42 12.06 1043.91 C 11.73 1044.42 11.08 1045.46 10.75 1045.98 Z" />
</g>
<g id="#1a1a1ab0">
<path fill="#1a1a1a" opacity="0.69" d=" M 263.26 670.24 C 269.66 661.09 275.45 651.47 282.19 642.58 C 281.68 645.00 280.08 646.92 278.76 648.95 C 258.90 678.43 239.09 707.94 219.19 737.39 C 218.46 738.57 217.51 739.57 216.36 740.37 C 217.91 737.06 220.30 734.26 222.22 731.18 C 235.89 710.86 249.60 690.57 263.26 670.24 Z" />
<path fill="#1a1a1a" opacity="0.69" d=" M 22.24 1028.19 C 29.33 1018.04 35.81 1007.41 43.25 997.52 C 42.41 1000.88 39.91 1003.43 38.15 1006.33 C 30.31 1017.83 22.74 1029.51 14.79 1040.94 C 14.14 1041.90 13.33 1042.70 12.35 1043.37 C 15.19 1038.03 19.04 1033.31 22.24 1028.19 Z" />
</g>
<g id="#1b1b1baf">
<path fill="#1b1b1b" opacity="0.69" d=" M 342.77 648.52 C 344.77 650.48 346.37 652.83 347.62 655.33 C 345.44 653.57 343.39 651.32 342.77 648.52 Z" />
</g>
<g id="#151515ba">
<path fill="#151515" opacity="0.73" d=" M 347.92 655.67 C 349.82 657.60 351.34 659.88 352.62 662.27 C 350.36 660.66 348.73 658.31 347.92 655.67 Z" />
</g>
<g id="#191919bc">
<path fill="#191919" opacity="0.74" d=" M 658.50 661.77 C 661.57 660.81 664.80 661.08 667.97 661.08 C 690.98 660.98 713.99 660.93 736.99 661.08 C 740.15 661.06 743.38 660.82 746.45 661.78 C 726.98 662.29 707.49 661.83 688.01 661.99 C 678.17 661.87 668.32 662.25 658.50 661.77 Z" />
<path fill="#191919" opacity="0.74" d=" M 822.58 661.77 C 826.62 660.60 830.87 661.22 835.02 661.11 C 868.34 661.00 901.67 660.93 935.00 661.09 C 939.48 661.26 944.08 660.48 948.47 661.78 C 917.99 662.26 887.48 661.85 856.99 661.99 C 845.52 661.85 834.04 662.25 822.58 661.77 Z" />
</g>
<g id="#1f1f1f98">
<path fill="#1f1f1f" opacity="0.60" d=" M 589.81 668.03 C 590.32 664.11 594.12 661.53 597.94 661.91 L 598.37 662.23 C 596.65 662.83 594.68 662.90 593.23 664.10 C 591.68 665.03 591.24 667.00 589.81 668.03 Z" />
</g>
<g id="#141414bc">
<path fill="#141414" opacity="0.74" d=" M 354.86 665.55 C 363.00 677.86 371.77 689.78 379.62 702.28 C 376.74 700.13 375.09 696.83 373.11 693.92 C 368.79 686.74 363.31 680.35 358.89 673.23 C 357.42 670.73 355.29 668.51 354.86 665.55 Z" />
</g>
<g id="#30303070">
<path fill="#303030" opacity="0.44" d=" M 583.17 678.77 C 583.29 678.60 583.52 678.25 583.63 678.08 C 583.52 678.25 583.29 678.60 583.17 678.77 Z" />
</g>
<g id="#30303078">
<path fill="#303030" opacity="0.47" d=" M 581.22 681.75 C 581.33 681.58 581.55 681.23 581.67 681.05 C 581.55 681.23 581.33 681.58 581.22 681.75 Z" />
<path fill="#303030" opacity="0.47" d=" M 575.18 690.81 C 575.30 690.62 575.54 690.24 575.66 690.06 C 575.54 690.24 575.30 690.62 575.18 690.81 Z" />
</g>
<g id="#30303072">
<path fill="#303030" opacity="0.45" d=" M 577.18 687.80 C 577.29 687.62 577.52 687.27 577.63 687.09 C 577.52 687.27 577.29 687.62 577.18 687.80 Z" />
</g>
<g id="#19191947">
<path fill="#191919" opacity="0.28" d=" M 571.13 697.03 C 571.29 695.89 571.85 695.08 572.83 694.59 C 573.34 696.20 572.78 697.02 571.13 697.03 Z" />
</g>
<g id="#1a1a1a96">
<path fill="#1a1a1a" opacity="0.59" d=" M 568.81 699.97 C 568.86 698.83 569.47 698.05 570.65 697.64 C 570.89 699.31 570.28 700.09 568.81 699.97 Z" />
</g>
<g id="#1a1a1a9a">
<path fill="#1a1a1a" opacity="0.60" d=" M 566.81 702.98 C 566.82 701.77 567.47 701.01 568.75 700.71 C 568.87 702.32 568.22 703.08 566.81 702.98 Z" />
</g>
<g id="#111111b2">
<path fill="#111111" opacity="0.70" d=" M 379.98 702.72 C 381.76 704.69 383.23 706.91 384.49 709.26 C 382.45 707.50 380.76 705.33 379.98 702.72 Z" />
</g>
<g id="#1d1d1d96">
<path fill="#1d1d1d" opacity="0.59" d=" M 564.87 706.03 C 564.91 704.79 565.55 704.00 566.79 703.67 C 566.93 705.26 566.29 706.05 564.87 706.03 Z" />
</g>
<g id="#1c1c1c98">
<path fill="#1c1c1c" opacity="0.60" d=" M 562.87 709.05 C 562.91 707.78 563.55 706.98 564.81 706.66 C 564.93 708.25 564.28 709.05 562.87 709.05 Z" />
</g>
<g id="#1c1c1c9d">
<path fill="#1c1c1c" opacity="0.62" d=" M 560.79 712.05 C 560.88 710.79 561.55 710.00 562.80 709.70 C 562.90 711.29 562.23 712.07 560.79 712.05 Z" />
</g>
<g id="#111111c2">
<path fill="#111111" opacity="0.76" d=" M 388.77 715.60 C 392.23 720.36 395.58 725.22 398.59 730.27 C 396.20 728.71 394.95 726.07 393.36 723.80 C 391.72 721.13 389.49 718.73 388.77 715.60 Z" />
</g>
<g id="#101010aa">
<path fill="#101010" opacity="0.67" d=" M 404.89 739.56 C 407.63 742.85 409.94 746.47 412.15 750.13 C 408.99 747.24 406.73 743.40 404.89 739.56 Z" />
</g>
<g id="#232323a1">
<path fill="#232323" opacity="0.63" d=" M 214.70 743.01 C 215.03 742.49 215.71 741.45 216.05 740.94 C 215.71 741.45 215.03 742.49 214.70 743.01 Z" />
<path fill="#232323" opacity="0.63" d=" M 43.72 996.97 C 44.06 996.46 44.74 995.43 45.08 994.91 C 44.74 995.43 44.06 996.46 43.72 996.97 Z" />
</g>
<g id="#1e1e1e31">
<path fill="#1e1e1e" opacity="0.19" d=" M 434.91 783.81 C 436.92 785.98 438.12 788.84 440.44 790.73 C 442.21 791.68 444.16 792.30 446.10 792.83 C 459.05 793.87 472.04 792.85 485.01 792.98 C 535.36 792.97 585.70 792.98 636.05 792.98 C 669.04 793.09 702.02 792.67 735.00 793.40 C 835.99 792.96 936.99 793.25 1037.98 793.17 C 1091.66 793.01 1145.35 793.58 1199.04 792.99 C 1203.80 793.06 1208.66 792.70 1213.33 793.93 C 1102.55 794.09 991.76 793.96 880.98 794.00 C 738.33 794.09 595.67 793.75 453.02 794.01 C 448.87 794.18 444.80 793.27 440.86 792.09 C 438.26 789.88 436.23 786.97 434.91 783.81 Z" />
</g>
<g id="#23232396">
<path fill="#232323" opacity="0.59" d=" M 1220.84 799.29 C 1220.40 797.64 1221.81 796.35 1223.22 795.87 C 1222.99 797.26 1222.37 798.89 1220.84 799.29 Z" />
</g>
<g id="#1c1c1cac">
<path fill="#1c1c1c" opacity="0.67" d=" M 1214.86 807.40 C 1216.28 804.54 1217.78 801.39 1220.59 799.66 C 1219.13 802.51 1217.25 805.24 1214.86 807.40 Z" />
</g>
<g id="#1e1e1e9e">
<path fill="#1e1e1e" opacity="0.62" d=" M 5.34 1053.00 C 6.92 1050.80 8.32 1048.46 10.23 1046.54 C 9.59 1048.36 8.64 1050.08 7.63 1051.74 C 7.30 1052.06 6.62 1052.69 6.28 1053.00 L 5.34 1053.00 Z" />
</g>
</svg>
