<svg width="33" height="29" viewBox="0 0 33 29" fill="none" xmlns="http://www.w3.org/2000/svg">
<path d="M19.3333 9.66667V19.3333C19.3333 24.65 14.9833 29 9.66668 29C4.35001 29 9.53674e-06 24.65 9.53674e-06 19.3333V9.66667C9.53674e-06 4.35 4.35001 0 9.66668 0C14.9833 0 19.3333 4.35 19.3333 9.66667ZM9.66668 2.14815C5.53149 2.14815 2.14816 5.53148 2.14816 9.66667V19.3333C2.14816 23.4685 5.53149 26.8519 9.66668 26.8519C13.8019 26.8519 17.1852 23.4685 17.1852 19.3333V9.66667C17.1852 5.53148 13.8019 2.14815 9.66668 2.14815Z" fill="#8A5FE4"/>
<path d="M9.66668 11.2778C9.07594 11.2778 8.5926 10.7945 8.5926 10.2038V6.98154C8.5926 6.3908 9.07594 5.90747 9.66668 5.90747C10.2574 5.90747 10.7408 6.3908 10.7408 6.98154V10.2038C10.7408 10.7945 10.2574 11.2778 9.66668 11.2778Z" fill="#8A5FE4"/>
<path d="M28.2 18.6667C28.4286 18.8889 28.7143 19 29 19C29.2857 19 29.5714 18.8889 29.8 18.6667L32.6571 15.8889C33.1143 15.4444 33.1143 14.7778 32.6571 14.3333C32.2 13.8889 31.5143 13.8889 31.0571 14.3333L29 16.3333L26.9429 14.3333C26.4857 13.8889 25.8 13.8889 25.3429 14.3333C24.8857 14.7778 24.8857 15.4444 25.3429 15.8889L28.2 18.6667Z" fill="#8A5FE4"/>
<path d="M28.2 13.6667C28.4286 13.8889 28.7143 14 29 14C29.2857 14 29.5714 13.8889 29.8 13.6667L32.6571 10.8889C33.1143 10.4444 33.1143 9.77778 32.6571 9.33333C32.2 8.88889 31.5143 8.88889 31.0571 9.33333L29 11.3333L26.9429 9.33333C26.4857 8.88889 25.8 8.88889 25.3429 9.33333C24.8857 9.77778 24.8857 10.4444 25.3429 10.8889L28.2 13.6667Z" fill="#8A5FE4"/>
</svg>
